<?xml version="1.0" encoding="utf-8"?>
<!-- Generator: Adobe Illustrator 27.5.0, SVG Export Plug-In . SVG Version: 6.00 Build 0)  -->
<svg version="1.1" id="Ñëîé_1" xmlns="http://www.w3.org/2000/svg" xmlns:xlink="http://www.w3.org/1999/xlink" x="0px" y="0px"
	 viewBox="0 0 4000 2000" style="enable-background:new 0 0 4000 2000;" xml:space="preserve">
<g>
	<rect id="_x35_" style="fill:#FFFFFF;" width="4000" height="2000"/>
	<g id="_x34_">
		<path style="fill:#F99370;" d="M483.776,1320.647c-109.225-41.145-224.497-93.894-292.427-194.506
			c-92.306-157.349,19.275-337.752,135.414-447.465c17.127-18.195,40.824-38.27,63.249-14.771
			c23.878,27.935-11.972,53.787-24.468,77.612c-148.439,245.134-96.979,334.139,168.914,409.689
			C645.137,1184.861,594.682,1353.296,483.776,1320.647z"/>
		<path style="fill:#F99370;" d="M668.681,1153.001c1.657,0.824,3.05,0.41,4.676,1.262c0.168,0.088,0.441,0.255,0.609,0.344
			c133.651,70.4,164.2,236.832,209.48,367.324c43.533,106.304,118.342,207.019,195.716,293.672
			c25.958,27.356-12.168,71.183-42.745,49.524c-110.666-74.419-206.049-163.938-278.082-279.097
			c-53.869-88.99-80.26-200.491-159.813-271.082c3.813,2.038,3.531,1.843,8.734,3.903
			C498.96,1278.181,560.092,1113.32,668.681,1153.001z"/>
		<path style="fill:#F99370;" d="M677.359,1125.438l-4.108,29.59c-15.171,49.347-80.789,10.691-91.652-8.872
			c0,0,5.937-28.031,7.073-41.181L677.359,1125.438z"/>
		<path style="fill:#E57D61;" d="M590.946,1011.431c0.035,1.587,0.123,3.202,0.304,4.772c2.253-1.134,1.346,56.173-3.503,97.268
			c36.528,22.161,80.508,19.572,88.582,18.894c7.052-51.947,7.925-99.932,3.83-130.62
			C670.512,949.493,589.169,958.413,590.946,1011.431z"/>
		<path style="fill:#CE4ABF;" d="M847.557,1328.047c0,0-13.96,34.7-62.36,68.15c-13.45,9.28-29.56,18.48-48.78,26.81l-6.99-30.02
			l-44-189.12l-11.46-49.26c0.01,0,0.01,0.01,0.02,0.01c0.44,0.15,8.55,2.98,21.48,9.8
			C729.847,1182.547,798.337,1228.877,847.557,1328.047z"/>
		<path style="fill:#A523A2;" d="M847.561,1328.05c0,0-22.791,56.656-111.149,94.958l-6.981-30.017
			c77.552-40.214,102.511-90.178,103.244-91.74C837.615,1309.696,842.556,1318.618,847.561,1328.05z"/>
		<path style="fill:#1D3F70;" d="M819.167,1999.997L242.879,2000c11.223-105.52,36.12-217.618,70.407-320.413
			c133.9-60.83,344.77-48.5,449.54,72.71C789.003,1834,808.552,1921.282,819.167,1999.997z"/>
		<path style="fill:#10325B;" d="M739.446,1999.997h-10.79c-9.1-71.14-29.142-136.169-46.542-194.479
			c-4.02-13.47-1.828-27.121-6.248-39.791c5.41,12.48,10.58,25.47,15.49,38.95C712.206,1861.807,728.527,1927.697,739.446,1999.997z
			"/>
		<polygon style="fill:#A523A2;" points="758.321,1280.46 795.076,1357.848 750.099,1412.231 		"/>
		<path style="fill:#10325B;" d="M452.517,1999.997h-18.09c6.56-67.81,10.18-140.36,16.47-216.1v-0.01
			c1.16-14.08,2.42-28.26,3.81-42.55c-0.11-5.95,9.22-6.11,9.56,0.28c0.76,14.6,1.25,29.87,1.43,45.7v0.01
			C466.487,1852.177,462.376,1926.247,452.517,1999.997z"/>
		<path style="fill:#CE4ABF;" d="M777.907,1787.657c-216.02,66.12-482.52-54.86-482.52-54.86
			c-49.21-33.95,35.89-194.39,41.08-230.64c39.654-147.804,55.498-351.788,246.85-364.44c97.22,86.49,91.19,22.63,90.65,16.89
			c0.01,0,0.01,0.01,0.02,0.01C835.322,1244.637,791.776,1753.123,777.907,1787.657z"/>
		<path style="fill:#CE4ABF;" d="M583.314,1137.731l-12.726,14.454l-159.174,180.691c-25.688-15.846-66.737-41.188-89.735-55.373
			c16.839-117.957,82.731-172.525,82.731-172.525c36.847-3.284,112.639,13.997,152.707,24.766
			C573.897,1134.214,584.447,1137.523,583.314,1137.731z"/>
		<path style="fill:#A523A2;" d="M441.47,1107.417c0,0-75.736,66.216-92.406,186.984l-27.381-16.888
			c16.83-117.964,82.716-172.549,82.716-172.549c11.825-0.159,24.353,0.765,37.039,2.422L441.47,1107.417z"/>
		<path style="fill:#C92828;" d="M725.43,895.803c0,0,8.887-73.838-56.603-93.922l-38.828,32.715L725.43,895.803z"/>
		<path style="fill:#F99370;" d="M526.322,981.102c8.865,40.487,25.229,85.768,59.008,110.991l0.053-0.003
			c13.727,10.151,29.87,16.088,46.932,18.483c96.823,21.339,202.437-95.727,123.43-172.291
			c-29.153-24.391-35.501-65.664-59.655-91.177c-33.922-43.787-102.657-37.584-137.769,1.633
			C526.588,884.196,517.683,931.116,526.322,981.102z"/>
		<path style="fill:#F9F8F3;" d="M725.503,1017.44l-55.101-24.377C667.329,1025.855,702.393,1044.74,725.503,1017.44z"/>
		<path style="fill:#C16256;" d="M680.825,947.198c3.342-7.309-8.214-12.391-11.341-4.986
			C666.142,949.521,677.698,954.603,680.825,947.198z"/>
		<path style="fill:#C16256;" d="M732.33,935.555c3.342-7.309-8.214-12.391-11.341-4.986
			C717.647,937.878,729.203,942.959,732.33,935.555z"/>
		<path style="fill:#E57D61;" d="M526.322,981.102c8.865,40.487,25.229,85.768,59.008,110.991l0.053-0.003
			c2.8,2.076,5.724,3.986,8.744,5.705c-25.922-23.005-43.069-74.486-43.069-74.486l3.305-44.596
			c37.395-42.38,17.81-86.603,17.81-86.603c67.33,14.899,87.382-27.257,87.382-27.257c21.108,1.532,42.563-10.27,42.563-10.27
			c-32.038-50.124-106.008-48.404-143.796-5.843C526.587,884.194,517.684,931.117,526.322,981.102z"/>
		<path style="fill:#C16256;" d="M725.633,1019.781c2.355-0.047,3.068-3.579,0.819-4.484c-1.407,0.69-58.67-29.042-58.194-23.184
			c-0.523,1.185,0.011,2.57,1.195,3.094C670.75,995.498,724.232,1019.976,725.633,1019.781z"/>
		<path style="fill:#C92828;" d="M540.703,873.49c28.801,9.568,42.348,74.467-21.743,122.927
			C518.96,996.417,480.68,890.391,540.703,873.49z"/>
		<path style="fill:#C16256;" d="M715.672,990.439c11.312-0.768,28.494-9.384,13.615-18.645
			c-15.302-7.15-19.667-32.131-25.137-30.925c-4.821,1.841,9.636,27.875,23.134,35.165c9.479,5.101-9.313,11.611-17.353,9.27
			c-1.25-0.328-2.535,0.425-2.859,1.677C706.638,991.222,712.725,990.289,715.672,990.439z"/>
		<path style="fill:#F99370;" d="M501.516,1003.191c12.644,45.871,68.669,30.719,56.469-15.271
			C545.341,942.051,489.317,957.203,501.516,1003.191z"/>
		<path style="fill:#C16256;" d="M516.789,1011.964c1.542-0.068,2.628-1.702,2.069-3.15c-9.498-22.898-1.661-35.315,17.18-29.272
			c2.862,1.006,4.374-3.554,1.463-4.454c-19.943-6.876-35.258,6.36-23.04,35.344C514.823,1011.422,515.787,1012.02,516.789,1011.964
			z"/>
		<path style="fill:#C16256;" d="M538.454,1007.474c7.239-0.986-7.869-22.639-25.688-22.85c-1.296,0.002-2.357,1.026-2.369,2.32
			c-0.013,1.295,1.025,2.355,2.319,2.369C530.98,990.176,534.124,1007.108,538.454,1007.474z"/>
		<path style="fill:#C92828;" d="M742.283,791.006c0,0-30.908-12.103-64.871-2.704c-2.46-12.761-8.971-24.959-20.412-35.285
			c-6.891,14.502-15.952,28.179-25.975,40.755c0.001-28.617-15.071-53.392-15.071-53.392c-7.712,27.156-47.174,42.197-67.78,69.607
			l-0.742-1.326c0,0-102.684,25.336-40.468,120.492l37.033-53.82c42.864,23.124,85.068,9.069,110.469-18.11
			C686.789,855.232,727.401,841.931,742.283,791.006z"/>
		<path style="fill:#FDFFDE;" d="M518.477,998.425c4.01,13.317,24.832,6.713,20.432-6.481
			C534.9,978.628,514.078,985.231,518.477,998.425z"/>
		<path style="fill:#FDFFDE;" d="M556.216,1021.931c5.955-0.113,8.6-8.511,3.583-11.955c0,0-27.155-20.122-27.155-20.122
			c-6.829-5.221-14.897,5.635-7.898,10.661C527.414,1001.782,553.314,1023.566,556.216,1021.931z"/>
		<path style="fill:#F99370;" d="M337.024,672.324c0,0,2.536-41.02,24.665-68.529l62.021,1.761c0,0,9.315,21.371,3.509,38.342
			c-5.806,16.971-16.126,37.889-38.467,48.337L337.024,672.324z"/>
		<path style="fill:#F99370;" d="M380.002,671.746c42.408-11.144,39.367-57.3,62.209-87.263c6.179-9.954,21.822-0.266,15.605,9.701
			c-4.874,8.135-9.378,16.832-13.093,25.525c-12.22,35.059-18.181,64.781-56.635,89.827
			C374.325,718.222,364.273,676.376,380.002,671.746z"/>
		<path style="fill:#CE3932;" d="M409.772,624.864c-0.877,0-1.757-0.31-2.463-0.94c-1.524-1.361-1.657-3.701-0.295-5.225
			l141.605-158.577c1.361-1.523,3.7-1.657,5.225-0.295c1.525,1.361,1.657,3.701,0.296,5.225L412.534,623.628
			C411.803,624.446,410.79,624.864,409.772,624.864z"/>
		<path style="fill:#F99370;" d="M360.593,597.74c-0.257,10.638-4.772,42.304,12.476,39.836c8.086-1.73,7.373-10.023,6.967-16.454
			c0.114-6.342,0.949-13.062,2.501-19.192C386.777,586.409,362.395,581.74,360.593,597.74z"/>
		<path style="fill:#F99370;" d="M396.874,588.184c9.469,25.361-8.855,45.141,6.498,49.897c16.818,3.337,16.99-32.197,16.812-43.225
			C421.28,565.075,393.287,570.109,396.874,588.184z"/>
		<path style="fill:#F99370;" d="M376.724,592.255c2.091,9.663,2.651,19.709,2.416,29.606c-0.345,7.597-2.969,19.352,7.771,20.447
			c15.502,1.158,11.724-31.721,12.691-42.175c-0.078-3.367-0.341-7.077-0.72-10.451
			C398.656,571.627,372.021,574.795,376.724,592.255z"/>
		<path style="fill:#F99370;" d="M414.748,574.201c-0.861,12.477-1.035,24.59-0.305,37.089c0.459,11.383,18.17,11.229,18.495-0.083
			c0.539-11.292,1.969-22.973,3.962-34.11C439.557,561.91,416.088,558.825,414.748,574.201z"/>
		<polygon style="fill:#FFCC66;" points="583.315,378.728 550.9,448.619 521.126,405.983 538.844,454.235 483.654,447.577 
			535.717,467.163 516.56,478.12 543.272,471.664 548.972,528.457 557.174,477.839 588.026,493.753 565.6,467.548 601.07,451.087 
			562.808,454.544 		"/>
		<path style="fill:#E57D61;" d="M422.913,621.925c-16.23-2.544-10.888-27.371-10.475-43.533c-0.556-3.279,3.815-4.608,4.099-0.988
			c-0.977,11.967-2.932,32.611,2.652,38.898c9.54,7.075,13.265-9.051,12.238-12.526C437.238,593.17,438.422,622.854,422.913,621.925
			z"/>
		<path style="fill:#E57D61;" d="M405.444,638.653c-2.671,0-5.951-1.108-9.627-4.63c-0.798-0.765-0.825-2.031-0.061-2.829
			c0.765-0.797,2.032-0.825,2.829-0.06c3.825,3.664,7.161,4.471,10.198,2.464c4.968-3.283,7.307-12.648,6.423-14.991
			c-0.391-1.034,0.131-2.189,1.165-2.579c1.035-0.389,2.189,0.131,2.579,1.165c1.646,4.36-1.598,15.539-7.96,19.744
			C409.726,637.772,407.827,638.653,405.444,638.653z"/>
		<path style="fill:#E57D61;" d="M387.397,644.324c-7.91,0.334-11.711-9.643-10.429-18.95c0.481-8.663,1.287-23.164-2.598-34.311
			c-0.364-1.044,0.187-2.185,1.23-2.548c8.26,1.97,5.169,35.17,5.215,39.89c0.077,18.776,14.902,14.112,15.929-6.152
			c2.51-20.099-1.271-38.13-1.309-38.31C402.451,566.643,407.611,647.384,387.397,644.324z"/>
		<path style="fill:#E57D61;" d="M370.61,640.583c-2.533,0-4.841-1.091-6.868-3.245c-6.852-7.287-5.931-25.434-5.888-26.202
			c0.061-1.104,0.995-1.948,2.107-1.887c1.103,0.061,1.948,1.004,1.888,2.107c-0.26,4.765,0.095,18.229,4.808,23.241
			c1.294,1.376,2.624,2.018,4.092,1.983c3.29-0.093,6.227-3.549,6.256-3.583c0.708-0.845,1.968-0.958,2.816-0.253
			c0.847,0.707,0.964,1.963,0.26,2.812c-0.165,0.199-4.094,4.865-9.195,5.023C370.794,640.582,370.702,640.583,370.61,640.583z"/>
		<path style="fill:#E57D61;" d="M374.863,664.244c-1.608,0.047-2.63-2-1.562-3.248c10.775-13.509,26.406-21.996,27.066-22.351
			c2.26-1.255,4.204,2.325,1.894,3.525C401.257,641.782,385.599,653.263,374.863,664.244z"/>
		<path style="fill:#A523A2;" d="M685.427,1203.867c-53.562,21.323-111.286-35.357-128.31-74.13c16.77,4.48,27.32,7.8,26.2,7.98
			c97.22,86.49,91.19,22.63,90.65,16.89c0.473,0.171,8.541,2.973,21.5,9.81C698.912,1177.538,700.404,1195.122,685.427,1203.867z"/>
		<path style="fill:#FFCC66;" d="M618.396,416.79l45.936-14.778l-39.179,28.17c-3.404,2.448-8.149,1.672-10.596-1.732
			c-2.448-3.404-1.672-8.149,1.732-10.596C616.939,417.385,617.672,417.026,618.396,416.79z"/>
		<path style="fill:#FFCC66;" d="M543.891,378.454l7.506-32.793l4.481,33.341c0.448,3.338-1.893,6.407-5.231,6.856
			c-3.338,0.449-6.407-1.893-6.856-5.231C543.692,379.888,543.736,379.14,543.891,378.454z"/>
		<path style="fill:#FFCC66;" d="M622.149,484.108l26.619,22.444l-32.658-12.074c-3.155-1.167-4.768-4.67-3.601-7.825
			c1.167-3.155,4.67-4.768,7.825-3.601C621.008,483.3,621.629,483.672,622.149,484.108z"/>
		<path style="fill:#FFCC66;" d="M613.245,358.927l29.808-34.899l-19.742,41.433c-1.438,3.017-5.049,4.298-8.067,2.86
			c-3.017-1.438-4.298-5.049-2.86-8.067C612.613,359.774,612.917,359.316,613.245,358.927z"/>
		<path style="fill:#FFCC66;" d="M473.117,406.723l-47.576-44.529l54.934,35.05c2.806,1.79,3.629,5.515,1.839,8.321
			c-1.79,2.805-5.515,3.629-8.321,1.839C473.685,407.207,473.376,406.963,473.117,406.723z"/>
		<path style="fill:#FFCC66;" d="M473.685,482.578l-28.544-4.458l27.894-7.524c3.271-0.882,6.637,1.054,7.519,4.325
			c0.882,3.271-1.054,6.637-4.325,7.52C475.383,482.668,474.5,482.702,473.685,482.578z"/>
		<path style="fill:#FFCC66;" d="M531.236,543.77l-10.109,30.895l-1.788-32.458c-0.186-3.367,2.393-6.246,5.76-6.432
			c3.367-0.185,6.246,2.393,6.432,5.76C531.572,542.308,531.46,543.076,531.236,543.77z"/>
		<path style="fill:#FFCC66;" d="M582.064,524.052l32.598,67.349l-40.449-62.948c-1.346-2.095-0.739-4.884,1.356-6.23
			c2.095-1.346,4.884-0.739,6.23,1.356C581.893,523.726,581.989,523.9,582.064,524.052z"/>
		<path style="fill:#FFCC66;" d="M504.887,357.942L492.85,311.69l20.495,43.175c1.07,2.255,0.11,4.951-2.145,6.022
			c-2.255,1.07-4.951,0.11-6.022-2.145C505.057,358.488,504.957,358.204,504.887,357.942z"/>
		<path style="fill:#FFCC66;" d="M566.669,298.058l9.266-28.683l-0.385,30.14c-0.032,2.513-2.096,4.525-4.609,4.492
			s-4.525-2.095-4.492-4.609C566.455,298.939,566.537,298.476,566.669,298.058z"/>
		<path style="fill:#FFCC66;" d="M672.858,449.075l28.605,2.953l-28.117,6.034c-2.46,0.528-4.883-1.038-5.411-3.499
			c-0.528-2.46,1.038-4.883,3.499-5.411C671.908,449.05,672.4,449.03,672.858,449.075z"/>
		<path style="fill:#FFCC66;" d="M425.003,447.123l-35.182-2.596l34.694-6.391c2.464-0.454,4.83,1.176,5.284,3.64
			c0.454,2.464-1.176,4.83-3.64,5.284C425.777,447.131,425.374,447.148,425.003,447.123z"/>
		<path style="fill:#A523A2;" d="M436.911,1220.582c-0.715,1.46-45.493,72.211-52.348,95.725
			c-7.809-4.828-16.212-10.014-24.378-15.05C388.05,1284.299,436.017,1221.535,436.911,1220.582z"/>
		<path style="fill:#A523A2;" d="M694.115,1301.89c-65.093,0-122.706-21.259-125.436-22.281l8.361-22.328l-4.181,11.164
			l4.174-11.166c0.708,0.264,71.557,26.327,140.965,19.662l2.28,23.732C711.502,1301.517,702.74,1301.89,694.115,1301.89z"/>
		<path style="fill:#A523A2;" d="M694.116,1355.564c-65.093,0-122.707-21.26-125.437-22.282l8.356-22.33
			c0.707,0.265,71.557,26.331,140.964,19.663l2.28,23.732C711.502,1355.191,702.741,1355.564,694.116,1355.564z"/>
		<path style="fill:#C16256;" d="M643.505,929.178c-0.603,0-1.206-0.243-1.646-0.723c-0.835-0.909-0.776-2.323,0.133-3.158
			c0.633-0.582,15.694-14.269,32.859-16.62c1.224-0.173,2.35,0.688,2.518,1.911c0.167,1.223-0.688,2.35-1.911,2.518
			c-15.792,2.163-30.295,15.349-30.44,15.482C644.588,928.983,644.046,929.178,643.505,929.178z"/>
		<path style="fill:#C16256;" d="M725.837,908.562c-0.138,0-0.278-0.013-0.419-0.04c-11.401-2.165-21.647-0.033-21.749-0.01
			c-1.204,0.258-2.395-0.511-2.653-1.717c-0.259-1.206,0.508-2.394,1.714-2.653c0.451-0.098,11.195-2.352,23.521-0.011
			c1.213,0.23,2.009,1.4,1.779,2.613C727.827,907.815,726.89,908.562,725.837,908.562z"/>
	</g>
	<g id="_x33_">
		<path style="fill:#8E4A35;" d="M1262.286,1140.375c6.3-14.782,9.887-31.699,10.87-49.304l0.001-0.003l-0.001,0.001
			c3.981-71.302-34.628-153.782-107.633-150.439l-0.001,0.024c0.691-0.634-23.875,5.907-30.917,8.988
			c24.393,41.772,71.587,122.63,103.618,177.499l-74.733,77.172l34.656,55.232c0,0,31.25,0.96,90.268-11.3
			C1288.414,1248.244,1255.883,1208.147,1262.286,1140.375z"/>
		<path style="fill:#F99370;" d="M1289.077,1287.919c208.069,60.676,387.335,43.649,445.77-195.585
			c8.206-31.006,50.502-30.577,54.372,2c7.877,325.864-246.654,416.357-527.544,352.007
			C1149.162,1430.47,1177.746,1263.64,1289.077,1287.919z"/>
		<path style="fill:#F99370;" d="M1196.444,1238.079l2.695,33.989c0,0,42.056,12.263,40.756,12.34
			c0,0,44.891,107.643-66.005,120.526c-12.945,1.504-158.81-83.207-158.81-83.207c47.539-26.746,94.58-45.595,94.58-45.595
			s0.087-21.16-1.592-33.896L1196.444,1238.079z"/>
		<path style="fill:#E57D61;" d="M1090.597,1152.854c0.366,1.5,0.789,3.018,1.292,4.472c1.908-1.55,13.074,53.106,17.082,93.181
			c39.446,13.401,80.795,1.715,88.343-0.623c-3.604-48.22-13.815-95.922-22.339-121.389
			C1157.167,1076.944,1078.233,1100.071,1090.597,1152.854z"/>
		<path style="fill:#F99370;" d="M1041.055,1109.129c6.28,39.444,19.524,83.912,50.683,110.05l0.051,0
			c85.932,77.593,259.9-44.006,172.905-138.519c-12.088-11.936-21.751-27.981-26.84-42.538
			C1188.761,884.036,1015.889,972.28,1041.055,1109.129z"/>
		<path style="fill:#C16256;" d="M1191.959,1085.09c3.632-6.857-7.235-12.37-10.657-5.426
			C1177.67,1086.52,1188.538,1092.033,1191.959,1085.09z"/>
		<path style="fill:#C16256;" d="M1242.28,1076.747c3.632-6.857-7.235-12.37-10.656-5.426
			C1227.991,1078.177,1238.859,1083.691,1242.28,1076.747z"/>
		<path style="fill:#C16256;" d="M1224.896,1128.572c10.457-0.593,25.675-8.242,12.422-17.135
			c-11.306-6.13-19.543-29.515-19.627-29.746c-11.672-8.843,4.883,27.617,17.456,33.718c9.133,5.131-9.869,10.781-17.251,7.955
			c-1.199-0.386-2.467,0.272-2.855,1.454C1214.582,1129.392,1221.637,1128.378,1224.896,1128.572z"/>
		<path style="fill:#E57D61;" d="M1041.055,1109.129c6.28,39.459,19.539,83.93,50.683,110.05l0.051,0
			c-17.254-21.461-27.936-69.427-27.936-69.427l8.226-21.311c137.344-43.934,125.829-153.912,125.829-153.912
			C1112.404,911.909,1021.644,1019.513,1041.055,1109.129z"/>
		<path style="fill:#F99370;" d="M1015.906,1129.005c10.135,44.952,64.07,33.709,55.311-11.556
			C1061.082,1072.498,1007.147,1083.74,1015.906,1129.005z"/>
		<path style="fill:#C16256;" d="M1025.379,1113.881c1.7-16.785,29.953-12.983,28.082-6.979c-1.997,4.47-17.594-6.873-22.81,5.241
			c16.396,2.035,29.688,28.632,18.557,21.653c-0.068-0.155-6.596-14.756-19.641-17.098c-0.473,4.725,0.41,10.98,2.746,18.675
			c0.439,1.371-0.597,2.842-2.031,2.91C1024.425,1136.221,1024.691,1115.802,1025.379,1113.881z"/>
		<path style="fill:#F4D4BE;" d="M1040.608,1149.721c-0.111,6.58,10.249,6.596,10.166,0.018
			C1050.884,1143.16,1040.525,1143.144,1040.608,1149.721z"/>
		<path style="fill:#3A72AA;" d="M1426.7,1779.008c-177.949,110.54-413.275,46.252-413.275,46.252
			c77.709-122.591-137.805-506.944,53.849-530.547c0.437-0.015,62.802,53.652,110.341,49.563
			c66.166-5.698,61.481-60.617,59.144-60.973c2.229,0.048,5.807-1.023,5.807-1.023c1.402,0.157,3.409,1.8,4.742,2.036
			c53.512,9.5,51.851,81.925,78.939,104.825c80.006,72.945,56.911,147.366,62.455,234.45
			C1392.822,1688.324,1426.7,1779.008,1426.7,1779.008z"/>
		<path style="fill:#23659B;" d="M1052.905,1484.677c0,0-56.107,134.443,14.271,226.77c6.163,8.086-39.211-20.024-39.198-9.291
			c-8.062-63.123-22.56-138.63-33.068-205.687L1052.905,1484.677z"/>
		<path style="fill:#E8C0A6;" d="M1480.187,1999.997h-505.69c3.548-94.587,6.187-181.236,53.39-258.78
			c68.768-21.193,46.115-219.736,48.08-261.15c-0.089-2.851-0.15-5.418-0.19-7.67c49.754-52.594,232.643-77.984,294.3-38.41h0.01
			c15.721,21.57,20.953,47.772,22.82,74.02c1.624,23.069,0.675,46.37,1.02,69.45
			C1407.199,1718.612,1451.636,1856.325,1480.187,1999.997z"/>
		<path style="fill:#F99370;" d="M1077.917,1426.139c-145.77,154.603-158.33,308.224,90.76,333.201
			c27.379,5.242,69.044-3.422,68.562,36.779c-3.752,34.703-45.491,28.799-70.888,31.96
			c-346.637,37.207-399.703-310.898-169.539-505.89C1066.626,1267.748,1147.89,1371.699,1077.917,1426.139z"/>
		<path style="fill:#23659B;" d="M1175.104,1350.74c-53.902,3.457-106.783-47.994-114.081-55.477c1.175-0.834,3.37-2.004,5.629-1.22
			c17.096,5.94,62.975,53.565,110.96,50.231c66.22-5.037,61.161-62.222,59.144-60.976c1.085-0.671,3.849-1.441,5.808-1.018
			C1246.668,1314.038,1231.825,1347.095,1175.104,1350.74z"/>
		<path style="fill:#3A72AA;" d="M1195.864,1825.6c-459.619,115.183-503.132-368.182-168.415-525.017
			c14.644-1.246,47.26,6.642,78.478,40.753c58.641,65.841-128.659,178.009-100.31,308.675
			c26.78,64.987,148.14,100.949,184.51,111.592C1176.45,1811.788,1195.864,1825.6,1195.864,1825.6z"/>
		<path style="fill:#E8C0A6;" d="M1055.747,1295.965c0,0,48.332,66.74,72.779,162.863l-52.499,21.874c0,0-9-98.607-48.604-180.119
			C1027.423,1300.584,1038.616,1294.908,1055.747,1295.965z"/>
		<path style="fill:#D1A68F;" d="M1123.018,1484.139c1.235,22.385-32.754,24.419-34.188,2.043
			C1087.596,1463.797,1121.585,1461.764,1123.018,1484.139z"/>
		<path style="fill:#3A72AA;" d="M1773.247,1282.162c-29.82,141.626-178.269,253.755-384.545,195.83l-146.13-195.711
			c0,0,13.528-5.03,45.311-1.608c190.642,45.454,352.875,65.421,441.957-171.808c0,0,21.198,17.235,60.563,8.572
			C1791.74,1148.82,1791.776,1190.257,1773.247,1282.162z"/>
		<path style="fill:#E8C0A6;" d="M1252.268,1280.321c0,0,19.619-6.494,35.622,0.356c0,0,71.122,117.903,100.811,197.318
			c0,0-46.501-31.939-69.776-43.039C1318.925,1434.956,1285.459,1340.01,1252.268,1280.321z"/>
		<path style="fill:#D1A68F;" d="M1360.442,1451.21c1.235,22.385-32.755,24.419-34.188,2.043
			C1325.019,1430.868,1359.009,1428.835,1360.442,1451.21z"/>
		<path style="fill:#23659B;" d="M1195.864,1825.6l-9.282,1.45c-23.29-30.22-3.77-67.471-3.77-67.471
			c4.599,1.305,7.339,2.04,7.314,2.025C1176.45,1811.788,1195.864,1825.6,1195.864,1825.6z"/>
		<path style="fill:#23659B;" d="M1790.849,1126.277c-47.749,8.365-63.507-10.268-63.507-10.268
			c0.952-2.559,1.784-4.942,2.498-7.144c0,0,21.198,17.235,60.563,8.572C1790.402,1117.438,1790.7,1120.414,1790.849,1126.277z"/>
		<path style="fill:#E8C0A6;" d="M1101.65,1492.412c-3.512,0.431-3.618-9.493-4.617-11.37c-0.776-3.149,4.19-4.302,4.876-1.127
			C1101.793,1482.369,1106.948,1492.341,1101.65,1492.412z"/>
		<path style="fill:#E8C0A6;" d="M1113.724,1491.377c-3.512,0.431-3.617-9.493-4.617-11.37c-0.776-3.149,4.191-4.302,4.876-1.126
			C1113.866,1481.334,1119.021,1491.306,1113.724,1491.377z"/>
		<path style="fill:#E8C0A6;" d="M1339,1459.967c-3.512,0.431-3.618-9.494-4.617-11.37c-0.776-3.15,4.193-4.301,4.876-1.126
			C1339.142,1449.923,1344.298,1459.897,1339,1459.967z"/>
		<path style="fill:#E8C0A6;" d="M1351.073,1458.933c-3.512,0.431-3.618-9.493-4.617-11.37c-0.776-3.149,4.192-4.302,4.876-1.126
			C1351.215,1448.889,1356.371,1458.862,1351.073,1458.933z"/>
		<path style="fill:#D1A68F;" d="M1173.737,1853.917c-6.29,6.31-12.7,12.1-19.2,17.41c-27,22.09-55.5,35.91-83.36,44.26
			c-17.26,5.18-34.27,8.25-50.53,9.89c-1.23,17.46-1.89,43.55-2.21,74.52h-8.68c1.27-36.88,3.29-66.77,6.43-83.21
			c13.27-0.35,30.25-3.22,48.54-8.68c26.92-8.04,56.69-21.72,81.69-41.31c7.46-5.83,14.5-12.2,20.91-19.1
			c1.72-1.76,4.55-1.81,6.32-0.09C1175.407,1849.327,1175.447,1852.147,1173.737,1853.917z"/>
		<path style="fill:#8E4A35;" d="M1110.627,1099.042c53.19-33.564,75.626-89.939,72.728-134.323
			c-6.352-5.479-14.91-10.428-24.769-14.406c2.223-3.239,4.528-6.468,6.937-9.683c0,0-82.796-68.745-170.614,15.224
			c-87.817,83.969-43.615,190.223-9.524,243.35c0,0,66.575,75.549,166.729,78.333
			C1152.114,1277.537,1107.514,1197.699,1110.627,1099.042z"/>
		<path style="fill:#F99370;" d="M1789.396,1100.102c0,0,16.003-37.855,8.444-72.341l-56.312-26.051
			c0,0-17.859,14.984-20.222,32.765c-2.362,17.781-2.441,41.106,12.907,60.412L1789.396,1100.102z"/>
		<path style="fill:#F99370;" d="M1736.506,1097.288c-16.664-16.092-26.417-39.618-24.391-62.876
			c3.52-19.087,6.059-38.521,3.944-58.064c-1.126-11.674,17.187-13.447,18.293-1.747c1.837,18.275,2.295,36.703-1.465,54.863
			c-3.268,18.658,4.544,38.278,18.288,50.974C1762.248,1089.798,1747.295,1106.964,1736.506,1097.288z"/>
		<path style="fill:#CE3932;" d="M1747.052,1025.591c-1.626,0-3.117-1.08-3.567-2.724l-56.138-205.054
			c-0.54-1.971,0.621-4.006,2.592-4.546c1.974-0.54,4.007,0.621,4.546,2.592l56.138,205.053c0.54,1.972-0.621,4.007-2.592,4.547
			C1747.704,1025.549,1747.375,1025.591,1747.052,1025.591z"/>
		<path style="fill:#F99370;" d="M1801.519,1022.828c-3.857,10.484-8.857,19.929-15.895,28.743
			c-6.865,8.865-21.065-1.139-15.157-10.553c4.47-7.342,7.668-15.835,9.538-24.215
			C1783.124,1001.018,1807.033,1007.7,1801.519,1022.828z"/>
		<path style="fill:#F99370;" d="M1773.294,998.11c-19.876,18.669-12.141,44.326-28.045,41.778
			c-14.384-4.414-4.12-24.917-1.388-34.722c3.294-8.087,7.637-15.856,13.328-22.539
			C1767.077,972.041,1783.495,987.804,1773.294,998.11z"/>
		<path style="fill:#F99370;" d="M1789.52,1010.731c-6.177,7.72-11.153,16.464-15.352,25.43
			c-3.075,6.956-5.963,18.649-16.065,14.844c-12.868-6.741-0.373-23.147,2.333-32.937c3.24-7.245,6.883-14.38,11.392-20.977
			C1780.675,982.877,1801.128,998.642,1789.52,1010.731z"/>
		<path style="fill:#F99370;" d="M1763.52,977.629c-4.787,11.554-10.027,22.476-16.248,33.342
			c-5.482,9.987-21.269,1.959-16.522-8.313c4.547-10.35,8.47-21.444,11.648-32.303
			C1746.784,955.574,1769.17,963.266,1763.52,977.629z"/>
		<polygon style="fill:#FFCC66;" points="1627.529,793.886 1681.666,805.054 1672.713,754.552 1694.164,800.504 1728.496,756.783 
			1705.514,807.438 1733.507,809.936 1707.168,820.635 1739.087,853.063 1697.882,830.158 1678.214,870.254 1684.648,828.834 
			1647.923,842.263 1677.431,817.662 		"/>
		<path style="fill:#E57D61;" d="M1738.957,1017.72c-20.323-2.013-4.414-34.223-3.544-21.042
			c-2.457,2.651-6.329,18.755,5.378,16.665c7.801-3.143,15.244-22.492,19.702-33.643c1.824-3.083,5.212-0.024,3.228,2.71
			C1757.526,996.623,1751.504,1016.323,1738.957,1017.72z"/>
		<path style="fill:#E57D61;" d="M1748.149,1040.577c-5.304,0-7.979-2.979-9.211-5.106c-3.823-6.597-1.748-18.052,1.668-21.223
			c0.81-0.752,2.075-0.705,2.828,0.106c0.751,0.811,0.704,2.076-0.106,2.828c-1.835,1.703-3.913,11.131-0.928,16.283
			c1.825,3.149,5.171,3.917,10.228,2.336c1.054-0.326,2.177,0.26,2.506,1.314s-0.26,2.177-1.314,2.506
			C1751.659,1040.295,1749.78,1040.576,1748.149,1040.577z"/>
		<path style="fill:#E57D61;" d="M1760.864,1053.579c-1.185,0-2.372-0.238-3.537-0.729c-4.698-1.981-9.009-8.016-2.871-25.506
			c6.941-19.776,18.401-34.276,18.885-34.884c0.689-0.863,1.948-1.005,2.811-0.317c0.864,0.688,1.006,1.947,0.318,2.811
			c-0.115,0.143-11.531,14.603-18.239,33.714c-3.928,11.192-3.691,18.662,0.65,20.493c4.298,1.816,8.56-2.654,10.873-7.888
			c0.337-0.763,0.709-1.629,1.119-2.581c3.545-8.243,9.479-22.041,18.489-30.844c0.79-0.773,2.057-0.759,2.83,0.032
			c0.772,0.791,0.757,2.058-0.033,2.829c-8.444,8.25-14.182,21.592-17.61,29.564c-0.415,0.965-0.792,1.844-1.134,2.617
			C1770.422,1049.664,1765.669,1053.578,1760.864,1053.579z"/>
		<path style="fill:#E57D61;" d="M1777.254,1057.609c-5.261,1.124-10.537-8.683-10.029-9.607c-0.625-2.517,3.332-3.451,3.895-0.915
			c5.55,17.847,20.998-5.872,23.207-12.629C1805.393,1027.204,1788.032,1059.246,1777.254,1057.609z"/>
		<path style="fill:#E57D61;" d="M1760.006,1076.221c-0.923,0-1.752-0.642-1.954-1.581c-3.452-16.071-13.528-30.452-13.63-30.596
			c-0.064-12.03,14.004,13.017,17.542,29.755C1762.244,1075.026,1761.261,1076.235,1760.006,1076.221z"/>
		<path style="fill:#C16256;" d="M1227.254,1158.625c-19.386,0-28.68-11.438-29.109-11.979c-1.021-1.291-0.802-3.165,0.488-4.186
			c1.288-1.021,3.157-0.804,4.18,0.479c0.432,0.534,10.064,12.079,30.75,9.289c1.628-0.225,3.132,0.923,3.353,2.555
			c0.22,1.631-0.924,3.132-2.555,3.352C1231.858,1158.473,1229.488,1158.625,1227.254,1158.625z"/>
		<path style="fill:#FFCC66;" d="M1638.939,754.664l-28.928-38.622l39.391,27.873c3.423,2.422,4.234,7.16,1.812,10.583
			c-2.422,3.423-7.16,4.234-10.583,1.812C1639.976,755.847,1639.398,755.271,1638.939,754.664z"/>
		<path style="fill:#FFCC66;" d="M1605.153,815.946l-30.933-10.353l32.583-1.533c3.368-0.158,6.226,2.443,6.384,5.811
			c0.158,3.368-2.443,6.226-5.811,6.384C1606.607,816.291,1605.843,816.174,1605.153,815.946z"/>
		<path style="fill:#FFCC66;" d="M1693.427,732.463l6.952-34.117l5.044,34.451c0.487,3.329-1.816,6.422-5.145,6.909
			c-3.328,0.487-6.422-1.816-6.909-5.145C1693.265,733.852,1693.294,733.129,1693.427,732.463z"/>
		<path style="fill:#FFCC66;" d="M1570.395,766.304l-42.702-16.822l45.603,5.178c3.321,0.377,5.708,3.375,5.33,6.696
			c-0.377,3.321-3.375,5.708-6.696,5.331C1571.402,766.627,1570.869,766.488,1570.395,766.304z"/>
		<path style="fill:#FFCC66;" d="M1660.417,902.361l-26.614,59.481l15.256-63.352c0.779-3.235,4.034-5.227,7.269-4.448
			c3.235,0.779,5.227,4.034,4.448,7.269C1660.69,901.666,1660.56,902.037,1660.417,902.361z"/>
		<path style="fill:#FFCC66;" d="M1737.064,872.903l5.078,28.441l-16.195-23.924c-1.899-2.805-1.164-6.619,1.641-8.518
			c2.805-1.899,6.619-1.164,8.518,1.641C1736.597,871.269,1736.916,872.093,1737.064,872.903z"/>
		<path style="fill:#FFCC66;" d="M1790.301,788.557l32.503-0.5l-30.107,12.258c-3.123,1.271-6.685-0.229-7.956-3.352
			c-1.271-3.123,0.229-6.685,3.352-7.956C1788.809,788.715,1789.571,788.57,1790.301,788.557z"/>
		<path style="fill:#FFCC66;" d="M1749.72,767.383l53.067-52.749l-46.349,58.739c-1.542,1.955-4.377,2.289-6.332,0.746
			s-2.289-4.377-0.746-6.332C1749.468,767.651,1749.6,767.504,1749.72,767.383z"/>
		<path style="fill:#FFCC66;" d="M1606.812,874.311l-44.84,16.537l40.945-24.651c2.139-1.287,4.916-0.598,6.204,1.541
			c1.288,2.139,0.598,4.916-1.541,6.204C1607.339,874.087,1607.066,874.215,1606.812,874.311z"/>
		<path style="fill:#FFCC66;" d="M1636.223,680.591l-6.521-28.008l14.859,24.621c1.3,2.154,0.608,4.955-1.547,6.255
			c-2.154,1.3-4.955,0.608-6.255-1.547C1636.51,681.497,1636.329,681.038,1636.223,680.591z"/>
		<path style="fill:#FFCC66;" d="M1795.198,856.238l27.631,21.932l-32.281-14.227c-2.293-1.011-3.333-3.689-2.322-5.982
			c1.01-2.293,3.689-3.333,5.981-2.322C1794.563,855.797,1794.906,856.009,1795.198,856.238z"/>
		<path style="fill:#CE3932;" d="M1357.343,1856.358l-95.979-5.339c-8.796-0.489-15.529-8.016-15.04-16.812l10.545-189.57
			c0.489-8.796,8.016-15.529,16.812-15.04l95.979,5.339c8.796,0.489,15.529,8.016,15.04,16.812l-10.545,189.57
			C1373.666,1850.114,1366.139,1856.847,1357.343,1856.358z"/>
		<path style="fill:#EB5648;" d="M1301.372,1663.225l-23.459-1.305c-5.388-0.3-9.513-4.91-9.213-10.298v0
			c0.3-5.388,4.91-9.512,10.298-9.213l23.459,1.305c5.388,0.3,9.513,4.91,9.213,10.298l0,0
			C1311.37,1659.4,1306.76,1663.525,1301.372,1663.225z"/>
		<path style="fill:#F99370;" d="M1251.308,1744.415c17.864,1.665,35.996-1.763,36.086-1.685
			c20.973-7.947,41.482-16.986,61.611-26.938c6.387-3.342,11.896,6.208,5.718,10.072c-18.328,12.01-37.228,23.275-56.606,33.561
			c0.031,0.106,0.055,0.213,0.085,0.319c23.096-3.633,46.038-8.517,68.436-15.26c7.022-2.355,10.706,8.366,3.776,10.967
			c-23.103,9.398-46.945,16.808-71.108,22.919c-0.006,0.055-0.014,0.109-0.02,0.164c22.253,0.211,44.546-2.27,66.307-7.039
			c2.922-0.695,5.935,0.903,6.864,3.779c6.884,12.625-68.862,22.793-78.423,23.511c-0.031,0.083-0.063,0.164-0.095,0.247
			c17.431,2.693,35.202,3.167,52.858,2.749c7.138-0.303,7.907,10.639,0.854,11.613c-21.246,3.545-42.868,5.9-64.465,4.783
			c-6.008,2.195-33.625,12.663-77.144,6.532c-12.834-1.808-22.196-58.166-10.178-62.686c28.586-11.944,36.744-24.499,56.663-39.139
			C1252.556,1723.141,1252.014,1744.595,1251.308,1744.415z"/>
		<path style="fill:#1D3F70;" d="M1285.21,1651.756c0.193,3.237-2.274,6.018-5.512,6.212c-3.237,0.193-6.018-2.274-6.212-5.512
			c-0.193-3.237,2.274-6.018,5.512-6.212C1282.236,1646.051,1285.017,1648.519,1285.21,1651.756z"/>
		<path style="fill:#F4D4BE;" d="M1305.205,1653.358c0.097,1.619-1.137,3.009-2.756,3.106c-1.619,0.097-3.009-1.137-3.106-2.756
			c-0.097-1.619,1.137-3.009,2.756-3.106C1303.718,1650.506,1305.108,1651.739,1305.205,1653.358z"/>
		<path style="fill:#C16256;" d="M1159.399,1074.438c-0.365,0-0.735-0.09-1.077-0.278c-1.081-0.596-1.475-1.953-0.88-3.033
			c0.379-0.689,9.518-17.022,30.163-30.479c1.035-0.675,2.42-0.382,3.093,0.651c0.674,1.034,0.382,2.419-0.652,3.093
			c-19.657,12.813-28.601,28.732-28.688,28.892C1160.951,1074.021,1160.187,1074.438,1159.399,1074.438z"/>
		<path style="fill:#C16256;" d="M1238.918,1057.319c-0.739,0-1.461-0.366-1.888-1.035c-4.894-7.69-20.513-14.291-20.67-14.357
			c-1.139-0.477-1.676-1.785-1.199-2.925c0.477-1.139,1.786-1.676,2.925-1.198c0.695,0.29,17.078,7.221,22.716,16.08
			c0.663,1.042,0.356,2.423-0.686,3.086C1239.745,1057.206,1239.329,1057.319,1238.918,1057.319z"/>
	</g>
	<g id="_x32_">
		<path style="fill:#F99370;" d="M2569.153,1092.014c-0.098,0.001-0.366,0.014-0.304,0.005l-0.009-0.012
			c283.194-33.878,391.066-208.34,358.495-484.573c-8.53-41.782,48.659-62.311,65.826-22.367
			c166.435,323.027-35.595,685.957-403.24,697.016C2459.203,1297.539,2437.68,1103.617,2569.153,1092.014z"/>
		<path style="fill:#E8C0A6;" d="M2861.161,2000h-661.849c0.715-49.144,2.176-91.97,3.845-126.421
			c2.474-50.545,5.335-82.97,6.825-90.599c0.297-1.49,0.536-2.056,0.685-1.579h642.596
			C2859.283,1851.942,2861.638,1925.524,2861.161,2000z"/>
		<rect x="2489.084" y="992.156" style="fill:#EA876C;" width="85.576" height="101.054"/>
		<path style="fill:#9358E0;" d="M2856.237,1732.407c-0.38,17.8-1.35,34.24-2.96,48.99c0,0-399.6,75.55-648.6,0
			c-1.87-15.06-3.69-31.47-5.26-48.99c-16.73-187.24-5.06-501.24,266.24-656.33c0,0-2.95-24.13,24.35-37.02
			c0,0,38.8,10.01,85.58-0.28c0,0,26.18,11.9,20.91,37.2c86.88,62.88,185,103.41,207.01,205.24
			C2833.427,1419.597,2858.877,1608.707,2856.237,1732.407z"/>
		<path style="fill:#F99370;" d="M2672.352,864.107c-10.388,47.986-68.979,35.598-59.055-12.485
			C2623.684,803.638,2682.275,816.026,2672.352,864.107z"/>
		<path style="fill:#F99370;" d="M2386.042,864.107c10.388,47.986,68.979,35.598,59.055-12.485
			C2434.71,803.638,2376.119,816.026,2386.042,864.107z"/>
		<path style="fill:#F99370;" d="M2649.635,915.946c-6.683,160.679-264.37,137.122-238.944-24.234
			c3.517-32,14.975-53.278,20.349-104.292c12.436-118.069,180.22-124.354,195.303-0.883
			C2632.266,835.246,2650.012,871.154,2649.635,915.946z"/>
		<path style="fill:#C16256;" d="M2561.507,843.626c-3.864-7.338,7.75-13.238,11.397-5.789
			C2576.767,845.174,2565.154,851.074,2561.507,843.626z"/>
		<path style="fill:#C16256;" d="M2484.89,843.773c-3.864-7.338,7.749-13.238,11.396-5.789
			C2500.151,845.322,2488.537,851.222,2484.89,843.773z"/>
		<path style="fill:#C16256;" d="M2523.588,893.863c-11.702-0.14-29.891-8.028-15.099-18.426
			c12.084-6.545,20.949-31.568,21.039-31.82c0.979-2.963,5.651-1.363,4.564,1.597c-0.385,1.101-9.588,27.05-23.296,34.477
			c-9.475,5.803,10.27,11.423,18.411,8.552c1.281-0.41,2.635,0.292,3.043,1.564C2532.939,894.151,2526.615,893.539,2523.588,893.863
			z"/>
		<path style="fill:#E57D61;" d="M2450.277,779.932c57.969,26.922,124.472-60.737,159.976-20.544l4.347-24.555l-67.597-31.71
			l-107.876,37.554L2450.277,779.932z"/>
		<path style="fill:#8C4225;" d="M2633.436,823.735c0,0-20.215-38.764-23.183-64.347c-2.968-25.583-37.326-30.043-65.548-10.014
			c-28.222,20.029-63.44,29.133-100.455,15.477c-37.015-13.656-60.963-69.773-23.312-102.874
			c37.279-32.774,76.055-7.236,109.592,5.462C2573.811,683.826,2682.549,650.77,2633.436,823.735z"/>
		<path style="fill:#8C4225;" d="M2426.135,821.892c0,0,30.262-34.282,32.083-79.802l-32.407-12.745
			C2425.81,729.345,2412.605,773.633,2426.135,821.892z"/>
		<path style="fill:#C16256;" d="M2660.086,873.679c-1.555,0.018-2.74-1.565-2.259-3.053c8.271-23.574-0.311-35.627-18.931-28.489
			c-2.823,1.174-4.601-3.331-1.722-4.399c19.677-8.048,35.835,4.42,25.168,34.268
			C2662.034,873.023,2661.098,873.679,2660.086,873.679z"/>
		<path style="fill:#C16256;" d="M2638.034,870.378c-7.339-0.585,6.646-23.222,24.563-24.435c1.291-0.066,2.428,0.899,2.514,2.201
			c0.086,1.302-0.899,2.428-2.2,2.514C2644.583,852.553,2642.371,869.767,2638.034,870.378z"/>
		<path style="fill:#C16256;" d="M2399.796,873.679c-1.012,0-1.948-0.656-2.259-1.673c-10.679-29.859,5.533-42.314,25.173-34.266
			c2.856,1.082,1.121,5.548-1.723,4.398c-16.85-6.916-27.848,3.564-18.931,28.49C2402.537,872.11,2401.35,873.701,2399.796,873.679z
			"/>
		<path style="fill:#C16256;" d="M2421.849,870.375c-4.285-0.566-6.65-17.859-24.879-19.717c-1.301-0.086-2.286-1.212-2.2-2.514
			c0.086-1.302,1.239-2.279,2.513-2.201C2415.2,847.164,2429.177,869.764,2421.849,870.375z"/>
		<path style="fill:#D1A68F;" d="M2238.106,1936.661c-5.53,0.193-7.873-7.864-2.858-10.561
			c70.984-41.369,97.998-95.812,98.264-96.357C2366.901,1812.297,2310.717,1900.459,2238.106,1936.661z"/>
		<path style="fill:#D1A68F;" d="M2822.791,1936.661c-72.627-36.227-128.756-124.293-95.406-106.918l0,0
			c0.266,0.545,27.28,54.988,98.264,96.357C2830.641,1928.775,2828.348,1936.881,2822.791,1936.661z"/>
		<path style="fill:#8C4225;" d="M2649.654,893.263c-4.222-25.508-8.549-46.193-16.243-69.588v-0.03
			c-0.32-0.849-0.576-1.784-0.864-2.652c-0.03,0-0.03,0-0.03,0c-2.92-8.762-6.05-17.345-9.507-26.911
			c4.772,31.791,16.475,67.404,15.348,100.285c-7.145,74.973-67.056-36.004-180.154,26.2c-21.106,8.841-41.151,2.88-36.448-26.41
			c1.589-21.984,5.546-63.06,11.92-92.058c-9.521,17.165-12.035,42.651-16.66,62.495
			C2351.389,1058.699,2665.184,1095.903,2649.654,893.263z M2467.652,935.642c32.884-24.04,86.052-28.02,121.623-7.27
			c33.408,20.144,8.433,59.424-22.054,60.467c-23.782,0.715-19.938-31.829-37.879-31.382c-14.424,0.358-12.129,49.144-57.16,30.041
			C2450.545,978.498,2448.25,948.755,2467.652,935.642z"/>
		<path style="fill:#D1A68F;" d="M2540.191,1892.891v106.513c0,0.179-0.03,0.387-0.03,0.596h-23.812
			c-44.167-26.852-24.408-151.544-24.14-156.283c0.477-3.099,3.367-5.215,6.467-4.738c15.454,0.815-23.735,133.408,30.16,154.137
			v-100.225c0-3.129,2.533-5.692,5.662-5.692C2537.627,1887.198,2540.191,1889.761,2540.191,1892.891z"/>
		<path style="fill:#7640CC;" d="M2596.31,1075.654c0.053,0.107,0.134,0.214,0.187,0.321
			c-66.083,17.136-131.902,0.059-131.762,0.107c0,0-2.955-24.139,24.349-37.029c0,0,38.803,10.019,85.576-0.277
			C2574.66,1038.776,2601.578,1050.355,2596.31,1075.654z"/>
		<path style="fill:#9358E0;" d="M2464.731,1076.07c0,0-52.75,195.145-176.787,379.055c-25.689,38.087-58.651,70.363-94.801,97.632
			c-51.617,38.922-109.672,67.621-162.243,88.304c-88.542,34.869-161.439,46.998-161.439,46.998
			c-24.527-42.915-18.388-76.622-18.388-76.622c91.939-70.482,140.994-125.676,278.919-317.275
			C2267.917,1102.535,2464.731,1076.07,2464.731,1076.07z"/>
		<path style="fill:#7640CC;" d="M2351.304,1255.569c-104.993,122.517-156.819,295.102-156.819,295.102l-1.342,2.086
			c-51.617,38.922-109.672,67.621-162.243,88.304c0,0,148.505-132.233,196.814-220.775
			C2275.278,1333.115,2349.009,1257.894,2351.304,1255.569z"/>
		<path style="fill:#F99370;" d="M1404.545,1187.24c0,0-23.58-32.185-28.281-67.176l43.995-43.75c0,0,21.909,7.967,30.214,23.866
			c8.305,15.898,16.362,37.788,8.548,61.181L1404.545,1187.24z"/>
		<path style="fill:#F99370;" d="M1438.141,1153.591c21.131-38.42-14.426-68.007-20.415-105.205
			c-2.96-11.336,14.838-16.003,17.781-4.631c2.541,9.136,5.743,18.392,9.487,27.073c17.035,28.502,33.953,69.862,20.921,102.425
			C1460.723,1188.677,1430.664,1168.183,1438.141,1153.591z"/>
		<path style="fill:#CE3932;" d="M1421.971,1100.868c-1.907,0-3.525-1.464-3.684-3.397l-17.43-211.885
			c-0.167-2.037,1.348-3.824,3.385-3.991c2.035-0.168,3.823,1.347,3.991,3.385l17.43,211.884c0.167,2.037-1.348,3.824-3.385,3.992
			C1422.175,1100.863,1422.073,1100.868,1421.971,1100.868z"/>
		<path style="fill:#F99370;" d="M1371.12,1116.688c7.212,8.531,15.142,15.695,24.772,21.568c9.484,5.98,19.403-8.28,10.63-15.103
			c-6.713-5.368-12.624-12.255-17.25-19.488C1380.94,1089.901,1360.761,1104.362,1371.12,1116.688z"/>
		<path style="fill:#F99370;" d="M1389.181,1083.804c24.988,10.672,26.602,37.503,40.65,29.657
			c14.003-9.894-11.64-34.495-19.757-41.96C1389.237,1050.193,1373.607,1073.956,1389.181,1083.804z"/>
		<path style="fill:#F99370;" d="M1378.254,1101.216c8.446,5.14,16.114,11.653,23.128,18.64c5.27,5.483,11.985,15.482,20.176,8.449
			c11.517-10.441-14.922-30.349-21.834-38.25c-2.092-1.914-4.581-3.953-6.834-5.734
			C1379.476,1070.547,1361.725,1091.474,1378.254,1101.216z"/>
		<path style="fill:#F99370;" d="M1391.355,1061.214c8.452,9.218,17.114,17.687,26.678,25.768
			c8.569,7.507,20.655-5.439,12.679-13.465c-7.815-8.168-15.298-17.251-22-26.366
			C1399.532,1034.763,1381.13,1049.652,1391.355,1061.214z"/>
		<polygon style="fill:#FFCC66;" points="1429.852,832.17 1400.645,879.1 1374.626,832.17 1388.736,885.023 1333.393,879.78 
			1385.941,898.027 1368.463,920.035 1394.365,908.319 1382.925,980.441 1407.664,908.15 1438.914,923.269 1415.824,897.647 
			1450.861,880.284 1412.7,884.719 		"/>
		<path style="fill:#E57D61;" d="M1425.101,1090.997c-0.089,0-0.179-0.002-0.27-0.004c-9.778-0.255-22.637-14.682-32.026-25.216
			l-0.881-0.988c-0.736-0.824-0.664-2.089,0.161-2.825c0.824-0.734,2.089-0.664,2.825,0.161l0.883,0.99
			c7.891,8.852,21.097,23.668,29.144,23.878c1.449,0.02,2.587-0.415,3.585-1.422c1.635-1.652,2.381-3.434,2.28-5.445
			c-0.272-5.416-6.453-10.582-6.515-10.634c-0.851-0.703-0.973-1.963-0.271-2.815c0.702-0.853,1.96-0.976,2.813-0.274
			c0.31,0.255,7.599,6.321,7.969,13.509c0.163,3.158-0.992,6.01-3.432,8.475C1429.649,1090.119,1427.543,1090.997,1425.101,1090.997
			z"/>
		<path style="fill:#E57D61;" d="M1421.59,1116.146c-2.528,0.039-2.633-3.92-0.092-4c5.291-0.248,8.174-2.111,8.81-5.695
			c1.042-5.862-4.137-14.01-6.444-14.982c-2.407-0.963-0.824-4.739,1.554-3.687
			C1433.961,1092.658,1442.095,1115.413,1421.59,1116.146z"/>
		<path style="fill:#E57D61;" d="M1416.619,1132.222c-4.553,0.244-10.379-3.809-14.187-8.372
			c-5.949-6.316-15.907-16.887-26.664-21.749c-1.007-0.455-1.454-1.641-0.999-2.647c7.12-4.629,29.056,20.476,32.511,23.695
			c13.661,12.872,20.486-1.068,6.511-15.785c-12.842-15.663-28.518-25.341-28.675-25.437
			C1376.636,1063.371,1451.662,1126.739,1416.619,1132.222z"/>
		<path style="fill:#E57D61;" d="M1402.067,1141.68c-10.161,0.509-31.982-19.328-20.21-16.524
			c3.275,3.472,13.28,12.488,20.16,12.522c8.826,0.02,3.715-10.137,7.718-10.822
			C1415.317,1127.212,1410.917,1143.007,1402.067,1141.68z"/>
		<path style="fill:#8C4225;" d="M2262.1,1255.495c0,0-336.114,225.229-398.633,77.421
			c-66.542-157.319,28.444-213.07,18.318-314.255l231.968-129.622c0,0,40.102,15.675,99.162,185.109
			C2251.377,1184.486,2262.1,1255.495,2262.1,1255.495z"/>
		<path style="fill:#F99370;" d="M1987.917,1414.941c-90.193,48.214-160.369,134.184-264.114,158.882
			c-200.216,52.984-289.883-128.059-313.239-295.906c-4.522-29.783-7.532-59.486-8.803-89.526
			c-2.938-23.324,4.422-44.451,30.857-46.511c22.707-0.371,32.36,17.678,35.337,37.257c2.893,11.402,6.016,22.789,9.336,34.089
			c17.393,57.865,39.235,116.169,72.631,166.4c23.931,34.826,59.258,75.067,104.818,60.159c31.675-9.064,56.327-27.455,80.78-50.093
			c49.501-47.142,95.427-100.857,154.49-138.481C2001.996,1177.928,2105.756,1350.788,1987.917,1414.941z"/>
		<path style="fill:#8C4225;" d="M2028.27,877.713c-110.455-49.087-184.409,126.356-126.985,216.971L2028.27,877.713z"/>
		<path style="fill:#F99370;" d="M1827.209,1858.009h373.596c1.928-147.73-15.121-297.074-49.822-440.534
			c-20.708-83.724-32.616-150.672-112.4-195.41c5.685-49.581-2.07-121.082-8.985-150.535c-3.637-15.906-15.019-27.938-27.813-31.931
			c-32.726-11.365-71.473,16.517-61.401,53.405c2.967-1.867,12.467,103.311,5.91,132.511
			c-162.156,51.75-79.498,235.98-90.579,359.583C1854.861,1675.916,1846.102,1769.225,1827.209,1858.009z"/>
		<path style="fill:#E57D61;" d="M1939.502,1088.217c0.226,1.599,0.51,3.222,0.883,4.787c2.14-1.417,8.13,56.615,8.184,98.734
			c39.579,17.998,83.705,10.082,91.781,8.424c-2.403-57.832,4.463-144.866-38.564-160.564
			C1970.892,1026.387,1934.064,1054.545,1939.502,1088.217z"/>
		<path style="fill:#F99370;" d="M2124.183,1046.929c-6.646,41.236-20.567,87.717-53.138,114.994h-0.054
			c-13.156,10.93-29.193,17.89-46.185,21.234c-96.222,26.911-209.07-84.948-133.873-166.424
			c27.326-25.249,33.123-69.98,54.903-95.093c31.673-45.964,101.182-43.584,138.714-6.096
			C2118.471,949.437,2130.067,996.147,2124.183,1046.929z"/>
		<path style="fill:#7640CC;" d="M2856.237,1732.407c-0.38,17.8-1.35,34.24-2.96,48.99c0,0-399.6,75.55-648.6,0
			c-1.87-15.06-3.69-31.47-5.26-48.99h0.01C2485.257,1808.247,2856.237,1732.407,2856.237,1732.407z"/>
		<path style="fill:#C16256;" d="M1966.808,1021.497c-3.774-7.167,7.569-12.929,11.13-5.654
			C1981.712,1023.009,1970.37,1028.772,1966.808,1021.497z"/>
		<path style="fill:#1D3F70;" d="M1929.067,1231.897c0,0-0.02,5.57-0.35,15.27c-1.76,51.45-12.32,219.05-75.51,286.11
			c-2.79,2.96-5.7,5.83-8.71,8.62c-11.01,10.18-23.45,19.18-36.91,26.99c-29.9,17.37-64.87,28.91-100.53,34.71
			c-61.98,10.1-126.11,2.85-169.54-21.28c-66.76-37.08-90.62-136.87-97.35-174.06c-1.61-8.92-2.24-14.24-2.24-14.24
			c65.9,10.73,97.19-38.81,97.19-38.81c2.21,3.05,4.42,5.96,6.66,8.73c70.68,87.74,154.32,37.68,210.29-21.91
			c57.55-61.28,130.78-93.29,161.91-104.93C1923.487,1233.547,1929.067,1231.897,1929.067,1231.897z"/>
		<path style="fill:#10325B;" d="M1856.487,1355.207l-11.99,186.69c-35.48,32.8-85.72,53.29-137.44,61.7
			c44.89-18.92,85.59-48.59,92.81-94.68C1817.127,1398.787,1856.487,1355.207,1856.487,1355.207z"/>
		<path style="fill:#10325B;" d="M1541.777,1363.937c-35.21,58.27-101.6,44.33-101.6,44.33l-0.01-0.01
			c-1.61-8.92-2.24-14.24-2.24-14.24c65.9,10.73,97.19-38.81,97.19-38.81C1537.327,1358.257,1539.537,1361.167,1541.777,1363.937z"
			/>
		<path style="fill:#C16256;" d="M1914.329,1012.675c-3.774-7.167,7.568-12.929,11.13-5.654
			C1929.234,1014.187,1917.891,1019.95,1914.329,1012.675z"/>
		<path style="fill:#C16256;" d="M1934.174,1066.962c-11.427-0.136-29.197-7.84-14.747-17.995
			c11.787-6.382,20.46-30.831,20.546-31.078c12.194-9.205-5.162,28.866-18.294,35.231c-9.248,5.667,10.014,11.156,17.982,8.354
			c1.248-0.401,2.574,0.285,2.971,1.528C1943.307,1067.244,1937.13,1066.646,1934.174,1066.962z"/>
		<path style="fill:#1D3F70;" d="M2217.797,1737.037c-14.795,87.781-17.335,174.323-19.39,262.96h-482.96
			c32.199-162.667,60.413-251.248,85.471-338.62c4.793-107.193,18.367-216.9,55.559-306.16
			c19.471-47.373,45.057-85.523,72.59-123.32c36.214,23.542,107.032,58.881,132.09,4.7
			C2253.73,1254.138,2234.021,1603.687,2217.797,1737.037z"/>
		<path style="fill:#E57D61;" d="M2124.183,1046.929c-6.646,41.236-20.567,87.717-53.138,114.994h-0.054
			c18.052-22.41,29.311-72.553,29.311-72.553l-8.531-22.304c-143.181-46.211-130.906-161.205-130.906-161.205
			c21.361-18.664,50.198-22.439,77.635-15.617C2105.719,907.625,2132.64,980.222,2124.183,1046.929z"/>
		<path style="fill:#8C4225;" d="M1976.082,895.631c0,0-11.522,113.394,116.615,159.941l45.989-25.385
			C2183.535,942.198,2102.337,812.966,1976.082,895.631z"/>
		<path style="fill:#8C4225;" d="M2125.636,860.706c-29.712,107.988-155.422,75.413-128.965-33.408
			C2026.383,719.313,2152.092,751.888,2125.636,860.706z"/>
		<path style="fill:#F99370;" d="M2150.373,1067.764c-10.145,46.865-67.368,34.767-57.677-12.193
			C2102.841,1008.706,2160.064,1020.805,2150.373,1067.764z"/>
		<path style="fill:#C16256;" d="M2135.498,1077.449c-1.555,0.018-2.74-1.565-2.259-3.053c8.931-24.93-2.119-35.407-18.933-28.486
			c-2.82,1.162-4.594-3.331-1.719-4.4c19.68-8.043,35.834,4.418,25.168,34.267
			C2137.446,1076.793,2136.51,1077.449,2135.498,1077.449z"/>
		<path style="fill:#C16256;" d="M2113.447,1074.148c-7.339-0.585,6.646-23.222,24.563-24.435c1.267-0.082,2.427,0.899,2.514,2.201
			c0.086,1.302-0.899,2.428-2.2,2.514C2119.996,1056.323,2117.784,1073.537,2113.447,1074.148z"/>
		<path style="fill:#F4D4BE;" d="M2124.553,1089.381c0.1,6.88-10.707,6.88-10.605,0
			C2113.847,1082.501,2124.654,1082.501,2124.553,1089.381z"/>
		<g>
			<path style="fill:#F99370;" d="M1810.967,1623.734c-1.264,0.124-1.542,0.185-2.187,0.285c-0.555,0.092-1.072,0.195-1.579,0.304
				c-1.014,0.219-1.983,0.483-2.941,0.778c-1.906,0.6-3.761,1.386-5.495,2.37c-1.733,0.974-3.342,2.164-4.656,3.505
				c-1.361,1.329-2.345,2.8-3.135,4.276c-2.339,4.375,0.716,9.412,6.821,11.252c4.304,1.297,8.976,0.659,12.177-1.362l4.86-3.084
				c0.096-0.061-0.104,0.084-0.062,0.062c0,0,0.08-0.053,0.218-0.095l0.201-0.052c0.029-0.005,0.04-0.009,0.04-0.009l-0.538,0.057
				c6.929-0.584,11.711-5.15,10.682-10.201C1824.346,1626.771,1817.896,1623.151,1810.967,1623.734z"/>
			<path style="fill:#F99370;" d="M1807.49,1641.557c-0.998,0.261-1.28,0.36-1.836,0.533l-1.387,0.478
				c-0.9,0.327-1.758,0.68-2.61,1.065c-1.698,0.771-3.355,1.681-4.944,2.783c-1.588,1.089-3.097,2.45-4.371,3.997
				c-1.293,1.552-2.229,3.386-2.806,5.263c-1.397,4.945,3.034,9.907,9.897,11.082c6.863,1.175,13.56-1.882,14.958-6.828
				c-0.02,0.236-0.24,0.281,0.214-0.051c0.22-0.148,0.554-0.347,0.978-0.539c0.21-0.094,0.44-0.191,0.662-0.271l0.31-0.108
				c0.018-0.011,0.315-0.088-0.094,0.017c6.552-1.642,9.856-6.874,7.379-11.685
				C1821.361,1642.483,1814.042,1639.915,1807.49,1641.557z"/>
			<path style="fill:#F99370;" d="M1803.156,1660.12l-9.917,5.582c-5.447,3.066-6.293,8.839-1.89,12.894
				c4.404,4.055,12.389,4.857,17.836,1.79l9.917-5.582c5.447-3.066,6.293-8.839,1.889-12.894
				C1816.588,1657.855,1808.602,1657.054,1803.156,1660.12z"/>
			<path style="fill:#F99370;" d="M1802.335,1676.784l-9.917,5.582c-5.447,3.066-6.293,8.839-1.889,12.894
				c4.403,4.055,12.389,4.856,17.835,1.79l9.917-5.582c5.447-3.067,6.293-8.839,1.89-12.894
				C1815.767,1674.52,1807.782,1673.718,1802.335,1676.784z"/>
		</g>
		<path style="fill:#F99370;" d="M2993.159,585.065c0,0,15.596-38.43,17.001-73.707l-47.896-39.441c0,0-21.068,9.982-27.848,26.588
			c-6.781,16.606-12.754,39.153-2.786,61.712L2993.159,585.065z"/>
		<path style="fill:#F99370;" d="M2927.129,604.903c-12.054-19.782-9.431-86.792-1.591-108.782
			c8.231-17.577,15.601-35.737,18.495-55.18c1.862-11.579,20.029-8.664,18.14,2.935c-2.843,18.145-7.059,36.09-15.287,52.711
			c-7.879,17.225-5.281,38.183,4.807,53.941C2960.04,562.382,2927.129,604.903,2927.129,604.903z"/>
		<path style="fill:#CE3932;" d="M2962.507,496.539c-2.023,0-3.676-1.628-3.699-3.658l-2.474-212.585
			c-0.023-2.043,1.613-3.72,3.657-3.743c2.053-0.074,3.72,1.613,3.743,3.657l2.474,212.585c0.023,2.043-1.613,3.72-3.657,3.743
			C2962.536,496.539,2962.521,496.539,2962.507,496.539z"/>
		<path style="fill:#F99370;" d="M3014.967,507.515c-0.944,1.423-1.671,2.391-2.518,3.521c-0.819,1.087-1.658,2.144-2.504,3.191
			c-1.7,2.086-3.474,4.108-5.324,6.078c-3.691,3.939-7.747,7.653-12.3,11.001c-4.119,3.029-9.914,2.146-12.943-1.973
			c-2.759-3.751-2.273-8.891,0.946-12.068l0.302-0.297c1.478-1.461,2.938-2.958,4.317-4.614c1.385-1.639,2.729-3.343,3.998-5.133
			c1.275-1.78,2.5-3.615,3.655-5.489c0.572-0.94,1.135-1.882,1.667-2.827c0.508-0.901,1.102-1.987,1.411-2.658
			c2.597-5.625,9.262-8.08,14.887-5.483c5.625,2.597,8.079,9.262,5.482,14.886c-0.234,0.509-0.502,0.992-0.8,1.447L3014.967,507.515
			z"/>
		<path style="fill:#F99370;" d="M2993.908,476.465c0.048-0.042-0.134,0.066-0.257,0.136l-0.429,0.258
			c-0.3,0.181-0.609,0.376-0.931,0.593c-0.634,0.403-1.278,0.878-1.922,1.324c-1.281,0.948-2.558,1.94-3.795,2.998
			c-2.482,2.107-4.851,4.402-7.01,6.873c-2.172,2.46-4.209,5.053-5.977,7.814c-1.852,2.72-3.342,5.641-4.783,8.598l-0.231,0.476
			c-2.237,4.59-7.771,6.497-12.362,4.26c-4.319-2.105-6.247-7.167-4.598-11.578c1.499-3.965,3.134-7.91,5.2-11.624
			c1.985-3.762,4.309-7.329,6.836-10.742c2.518-3.425,5.302-6.642,8.308-9.68c1.5-1.522,3.075-2.988,4.706-4.422
			c0.841-0.707,1.659-1.418,2.553-2.113c0.431-0.347,0.888-0.698,1.364-1.05l0.735-0.538l0.925-0.635
			c5.261-3.221,12.137-1.569,15.36,3.692C3000.822,466.367,2999.168,473.243,2993.908,476.465z"/>
		<path style="fill:#F99370;" d="M3006.416,492.778c-0.111,0.064-0.49,0.343-0.766,0.552l-0.923,0.708l-1.883,1.518
			c-1.257,1.05-2.518,2.13-3.75,3.261c-2.472,2.249-4.892,4.603-7.22,7.06c-2.313,2.468-4.598,4.985-6.74,7.623
			c-2.18,2.61-4.219,5.334-6.228,8.088l-0.137,0.189c-3.012,4.13-8.801,5.036-12.931,2.024c-3.893-2.839-4.9-8.18-2.483-12.239
			c1.976-3.294,4.006-6.566,6.202-9.729c2.156-3.192,4.481-6.269,6.867-9.31c2.4-3.031,4.928-5.972,7.574-8.847
			c1.318-1.441,2.689-2.851,4.095-4.253l2.171-2.096l1.145-1.054c0.415-0.373,0.737-0.668,1.337-1.165l0.879-0.729
			c4.779-3.965,11.869-3.304,15.833,1.476c3.966,4.78,3.304,11.869-1.476,15.833C3007.501,492.088,3006.94,492.471,3006.416,492.778
			z"/>
		<path style="fill:#F99370;" d="M2989.629,454.178c-1.958,2.62-3.801,4.953-5.746,7.37c-1.926,2.391-3.889,4.75-5.884,7.088
			c-3.987,4.676-8.137,9.247-12.521,13.694c-3.591,3.643-9.455,3.685-13.098,0.094c-3.391-3.343-3.662-8.656-0.786-12.313
			l0.094-0.118c3.507-4.424,6.878-9.046,10.112-13.792c1.618-2.371,3.209-4.768,4.76-7.186c1.535-2.392,3.111-4.911,4.47-7.213
			c3.138-5.323,9.995-7.094,15.318-3.958c5.323,3.137,7.094,9.995,3.957,15.317C2990.101,453.509,2989.866,453.859,2989.629,454.178
			z"/>
		<polygon style="fill:#FFCC66;" points="3012.047,242.075 2976.596,271.842 3033.007,294.579 2971.813,284.253 2982.212,338.862 
			2959.128,288.253 2938.852,307.713 2948.093,280.828 2897.074,279.2 2947.017,267.572 2929.04,237.874 2956.71,258.465 
			2970.719,221.957 2969.874,260.365 		"/>
		<path style="fill:#E57D61;" d="M2957.909,487.031c-2.068,0-3.938-0.689-5.571-2.057c-2.659-2.226-4.076-4.957-4.21-8.116
			c-0.304-7.19,6.385-13.913,6.67-14.195c0.785-0.778,2.052-0.773,2.829,0.011c0.778,0.784,0.773,2.049-0.009,2.828
			c-0.066,0.066-5.728,5.783-5.491,11.197c0.088,2.012,0.997,3.715,2.779,5.207c1.087,0.91,2.263,1.248,3.702,1.081
			c7.991-0.962,19.753-16.947,26.78-26.498l0.789-1.072c0.654-0.89,1.906-1.08,2.797-0.424c0.89,0.655,1.08,1.908,0.424,2.798
			l-0.787,1.069c-8.362,11.365-19.814,26.931-29.525,28.099C2958.688,487.006,2958.294,487.03,2957.909,487.031z"/>
		<path style="fill:#E57D61;" d="M2963.408,511.731c-8.692,0-11.364-4.836-12.186-7.805c-2.03-7.35,2.873-17.908,6.979-20.111
			c0.978-0.52,2.188-0.156,2.709,0.817c0.522,0.974,0.157,2.186-0.816,2.709c-2.207,1.184-6.601,9.78-5.015,15.519
			c0.97,3.509,4.02,5.095,9.305,4.846c1.093-0.049,2.041,0.801,2.093,1.905c0.051,1.104-0.802,2.041-1.905,2.092
			C2964.173,511.722,2963.785,511.731,2963.408,511.731z"/>
		<path style="fill:#E57D61;" d="M2970.181,527.282c-2.002,0-3.898-0.618-5.562-1.894c-4.044-3.105-6.689-10.032,3.671-25.402
			c11.716-17.38,26.47-28.511,27.092-28.976c0.884-0.661,2.139-0.48,2.8,0.404c0.662,0.884,0.481,2.138-0.403,2.8
			c-0.146,0.11-14.849,11.213-26.17,28.008c-6.63,9.836-8.289,17.123-4.552,19.992c3.701,2.842,8.954-0.404,12.514-4.883
			c0.519-0.652,1.099-1.397,1.735-2.214c5.515-7.079,14.743-18.928,25.687-25.167c0.958-0.548,2.182-0.213,2.729,0.747
			c0.547,0.96,0.213,2.182-0.747,2.729c-10.255,5.847-19.18,17.304-24.512,24.15c-0.646,0.829-1.233,1.584-1.76,2.246
			C2978.842,524.679,2974.29,527.282,2970.181,527.282z"/>
		<path style="fill:#E57D61;" d="M2985.29,535.35c-2.486,0-4.58-0.777-6.24-2.318c-3.74-3.473-3.634-9.571-3.627-9.829
			c0.026-1.088,0.917-1.952,1.999-1.952c0.017,0,0.033,0.001,0.051,0.001c1.104,0.027,1.978,0.945,1.95,2.049
			c-0.001,0.04-0.059,4.575,2.359,6.807c1.073,0.99,2.508,1.381,4.387,1.195c6.847-0.678,15.965-10.59,18.9-14.353
			c0.681-0.871,1.938-1.024,2.809-0.347c0.871,0.68,1.026,1.936,0.348,2.808c-0.474,0.608-11.708,14.888-21.662,15.875
			C2986.128,535.329,2985.703,535.35,2985.29,535.35z"/>
		<path style="fill:#E57D61;" d="M2961.814,548.744c-0.03,0-0.06-0.001-0.09-0.002c-1.104-0.049-1.96-0.983-1.911-2.087
			c0.723-16.422-5.391-32.883-5.452-33.048c-0.39-1.034,0.133-2.188,1.167-2.577c1.035-0.389,2.188,0.132,2.577,1.166
			c0.265,0.701,6.465,17.372,5.706,34.634C2963.764,547.905,2962.879,548.744,2961.814,548.744z"/>
		<path style="fill:#9358E0;" d="M3053.707,987.077c-11.86,63.78-46.28,119.25-87.48,165.15c-0.01,0.01-0.01,0.01-0.02,0.01
			c-54.53,60.76-120.96,104.74-162.68,128.98c-24.54,14.25-40.53,21.68-40.53,21.68l-166.5-226.92
			c190.57-43.16,263.05-161.18,291.66-221.46c22.03-46.42,33.9-162.52,38.19-213.48c1.28-15.23,1.89-24.64,1.89-24.64
			c55.85,7.66,74.7-10.2,74.7-10.2s3.64,7.6,9.11,21.38C3033.457,681.397,3082.997,829.537,3053.707,987.077z"/>
		<path style="fill:#10325B;" d="M2076.237,1238.267c-31.15,72.8-113.72,30.33-147.52,8.9c-2.74-1.74-5.16-3.34-7.21-4.73
			c-4.79-3.25-7.53-5.34-7.53-5.34c9.51-3.55,15.09-5.2,15.09-5.2c112.15,71.75,132.09,4.7,132.09,4.7
			C2066.337,1236.887,2071.357,1237.447,2076.237,1238.267z"/>
		<path style="fill:#10325B;" d="M1787.627,2000l-15.583-0.003c11.208-52.465,26.601-107.067,40.926-158.356
			c8.184-29.3,16.646-59.597,24.416-89.68c7.387-28.585,13.378-54.056,18.318-77.868c2.01-9.618,3.868-19.108,5.525-28.219
			c3.519-19.212,6.441-38.075,8.687-56.076c1.631-13.05,2.955-26.028,3.935-38.575c2.19-27.956,5.096-55.171,8.638-80.89
			c4.763-34.481,10.744-66.777,17.778-95.993c2.243-9.326,4.663-18.6,7.193-27.562c2.799-9.906,5.771-19.517,8.834-28.566
			c11.711-34.61,22.273-54.095,27.527-62.628c1.81-2.934,2.886-4.398,3.003-4.557l12.047,8.938l0,0c0,0-0.829,1.136-2.28,3.488
			c-3.958,6.43-14.432,25.117-26.088,59.567c-2.982,8.81-5.877,18.175-8.607,27.835c-2.477,8.772-4.847,17.855-7.045,26.994
			c-6.919,28.737-12.808,60.543-17.503,94.533c-3.501,25.427-6.375,52.347-8.542,80.01c-0.998,12.775-2.345,25.986-4.004,39.264
			c-2.281,18.281-5.247,37.429-8.815,56.911c-1.679,9.229-3.562,18.849-5.596,28.583c-4.987,24.041-11.032,49.742-18.48,78.562
			c-7.805,30.226-16.288,60.595-24.491,89.964C1813.152,1896.746,1798.737,1947.991,1787.627,2000z"/>
		<path style="fill:#10325B;" d="M1939.199,2000h-14.983c2.404-50.378,5.217-98.571,8.361-142.528
			c5.483-76.736,11.961-141.545,19.256-192.625c2.193-15.359,4.493-29.664,6.836-42.516c1.431-7.889,2.793-15.746,4.048-23.346
			c6.014-36.298,11.1-75.117,15.117-115.384c3.423-34.31,6.089-69.701,7.923-105.191c3.017-58.467,2.804-97.388,2.77-101.633l0-0.94
			h15v0.88c0.034,4.23,0.249,43.565-2.79,102.467c-1.847,35.729-4.531,71.361-7.978,105.907
			c-4.05,40.587-9.178,79.73-15.244,116.342c-1.268,7.674-2.644,15.609-4.089,23.582c-2.311,12.67-4.58,26.782-6.745,41.952
			c-7.245,50.732-13.686,115.188-19.144,191.574C1944.402,1902.382,1941.596,1949.739,1939.199,2000z"/>
		<path style="fill:#10325B;" d="M2071.726,2000h-14.998c0.755-46.854,1.968-94.796,3.604-142.252
			c2.104-61.248,4.937-122.907,8.418-183.263c1.033-17.859,1.901-36.124,2.582-54.289c1.262-33.805,1.859-67.837,1.775-101.15
			c-0.038-15.439-0.229-30.927-0.568-46.031c-0.783-35.653-2.369-70.395-4.713-103.265c-0.331-4.809-0.688-9.608-1.096-14.695
			c-4.78-60.398-10.575-94.293-10.634-94.629l14.78-2.558c0.241,1.393,5.965,34.824,10.807,95.997
			c0.411,5.137,0.772,9.992,1.105,14.838c2.36,33.094,3.958,68.084,4.746,103.979c0.341,15.2,0.533,30.788,0.572,46.327
			c0.084,33.511-0.517,67.744-1.785,101.748c-0.685,18.268-1.559,36.635-2.598,54.594c-3.474,60.238-6.301,121.78-8.402,182.914
			C2073.689,1905.629,2072.479,1953.237,2071.726,2000z"/>
		<path style="fill:#10325B;" d="M2150.443,2000l-15.041-0.003c3.831-45.841,7.145-94.165,9.766-142.398
			c2.759-50.886,4.818-103.089,6.121-155.16c0.815-32.746,0.32-65.717-1.471-97.996c-0.436-7.965-0.979-16.216-1.66-25.23
			c-3.037-39.397-8.071-78.626-14.961-116.587c-7.662-42.198-17.618-83.028-29.59-121.353c-1.379-4.408-2.733-8.641-4.026-12.576
			c-16.063-48.883-29.877-75.984-30.014-76.252l13.339-6.86c0.582,1.132,14.45,28.294,30.926,78.431
			c1.314,4.004,2.691,8.304,4.093,12.782c12.155,38.913,22.259,80.346,30.031,123.149c6.981,38.464,12.081,78.206,15.158,118.124
			c0.69,9.13,1.24,17.483,1.681,25.547c1.813,32.673,2.315,66.049,1.49,99.195c-1.307,52.217-3.372,104.568-6.139,155.6
			C2157.517,1906.79,2154.286,1954.014,2150.443,2000z"/>
		<path style="fill:#8C4225;" d="M2038.584,1222.065c0,0,4.972,64.481,0,139.574c-4.972,75.093,58.117,104.441,60.926,170.108
			c4.938,115.432,126.248,83.777,140.014-30.65c8.241-68.501,46.945-105.633,22.576-245.602
			C2246.582,1166.365,2038.584,1222.065,2038.584,1222.065z"/>
		<path style="fill:#10325B;" d="M1631.097,1469.862c-24.719,0-50.71-10.273-76.521-30.464
			c-26.396-20.647-43.243-44.173-43.947-45.164l12.226-8.69c0.633,0.89,64.117,88.667,131.697,65.397
			c43.324-14.921,87.25-58.055,129.729-99.768c48.55-47.675,98.752-96.973,152.82-110.833l3.725,14.529
			c-50.161,12.859-98.9,60.721-146.036,107.006c-43.668,42.882-88.824,87.223-135.355,103.247
			C1650.243,1468.289,1640.767,1469.862,1631.097,1469.862z"/>
		<path style="fill:#10325B;" d="M1657.803,1552.942c-24.83,0-49.644-5.29-74.239-15.863c-43.96-18.899-74.784-53.811-92.901-79.769
			c-19.535-27.99-28.705-51.341-29.085-52.321l13.98-5.436c0.351,0.897,35.927,90.21,113.931,123.744
			c107.149,46.064,190.967-28.783,222.03-63.103l11.121,10.066c-21.11,23.321-55.908,54.62-101.807,71.281
			C1699.895,1549.144,1678.842,1552.942,1657.803,1552.942z"/>
		<path style="fill:#7640CC;" d="M2966.207,1152.237c-54.53,60.76-120.96,104.74-162.68,128.98c-0.01,0-0.02,0-0.02,0
			s-13.912-41.596-28.23-64.49C2775.277,1216.727,2859.957,1244.557,2966.207,1152.237z"/>
		<path style="fill:#FFCC66;" d="M1379.388,802.788l-1.348-48.236l16.095,45.492c1.399,3.953-0.672,8.291-4.625,9.69
			c-3.953,1.399-8.291-0.672-9.69-4.625C1379.552,804.352,1379.413,803.549,1379.388,802.788z"/>
		<path style="fill:#FFCC66;" d="M1342.944,851.845l-29.387-16.374l33.265,5.018c3.33,0.502,5.622,3.609,5.12,6.939
			c-0.502,3.33-3.609,5.622-6.939,5.12C1344.266,852.437,1343.561,852.185,1342.944,851.845z"/>
		<path style="fill:#FFCC66;" d="M1436.702,816.088l25.36-23.857l-15.755,31.05c-1.522,3-5.188,4.198-8.188,2.676
			c-3-1.522-4.198-5.188-2.676-8.188C1435.768,817.128,1436.21,816.555,1436.702,816.088z"/>
		<path style="fill:#FFCC66;" d="M1330.801,789.981l-25.175-38.375l34.262,30.537c2.495,2.224,2.715,6.049,0.491,8.545
			c-2.224,2.495-6.049,2.715-8.545,0.491C1331.437,790.825,1331.082,790.404,1330.801,789.981z"/>
		<path style="fill:#FFCC66;" d="M1331.462,918.211l-56.053,33.232l49.009-42.946c2.503-2.193,6.31-1.942,8.503,0.561
			c2.193,2.503,1.942,6.31-0.56,8.503C1332.085,917.801,1331.765,918.029,1331.462,918.211z"/>
		<path style="fill:#FFCC66;" d="M1463.901,901.436l26.838,18.343l-31.664-7.356c-3.284-0.763-5.328-4.044-4.565-7.328
			c0.763-3.284,4.044-5.328,7.328-4.565C1462.591,900.705,1463.297,901.026,1463.901,901.436z"/>
		<path style="fill:#FFCC66;" d="M1460.473,853.495l73.776-12.472l-71.745,21.24c-2.387,0.707-4.896-0.656-5.603-3.043
			c-0.707-2.387,0.656-4.896,3.043-5.603C1460.111,853.568,1460.305,853.525,1460.473,853.495z"/>
		<path style="fill:#FFCC66;" d="M1307.581,881.984l-46.167-12.36l47.665,3.486c2.49,0.182,4.36,2.348,4.178,4.838
			c-0.182,2.49-2.348,4.36-4.838,4.178C1308.14,882.105,1307.843,882.052,1307.581,881.984z"/>
		<path style="fill:#FFCC66;" d="M1277.217,806.885l-24.949-16.915l28.831,8.795c2.404,0.733,3.758,3.277,3.025,5.681
			c-0.733,2.404-3.277,3.758-5.681,3.025C1278.003,807.336,1277.581,807.128,1277.217,806.885z"/>
		<path style="fill:#FFCC66;" d="M1419.093,754.547l10.831-26.64l-2.066,28.683c-0.181,2.51-2.362,4.398-4.872,4.217
			c-2.51-0.181-4.398-2.362-4.217-4.872C1418.804,755.453,1418.922,754.974,1419.093,754.547z"/>
		<path style="fill:#FFCC66;" d="M1346.489,967.919l-18.168,30.239l9.925-33.852c0.705-2.404,3.226-3.782,5.63-3.077
			c2.404,0.705,3.782,3.226,3.077,5.63C1346.844,967.232,1346.678,967.6,1346.489,967.919z"/>
		<path style="fill:#FFCC66;" d="M1444.556,962.918l19.095,29.663l-25.979-23.866c-1.845-1.695-1.967-4.565-0.272-6.411
			s4.565-1.967,6.411-0.272C1444.097,962.296,1444.353,962.607,1444.556,962.918z"/>
		<path style="fill:#FFCC66;" d="M2908.865,212.435l-25.868-40.736l37.127,30.824c3.226,2.678,3.67,7.465,0.991,10.691
			c-2.678,3.226-7.465,3.67-10.691,0.992C2909.807,213.694,2909.275,213.076,2908.865,212.435z"/>
		<path style="fill:#FFCC66;" d="M2880.294,265.789l-31.451-11.938l33.641,0.139c3.368,0.014,6.086,2.755,6.073,6.123
			c-0.014,3.368-2.755,6.086-6.123,6.073C2881.688,266.182,2880.953,266.036,2880.294,265.789z"/>
		<path style="fill:#FFCC66;" d="M2964.9,194.497l9.559-33.481l2.375,34.737c0.229,3.356-2.305,6.263-5.661,6.492
			c-3.356,0.23-6.263-2.305-6.492-5.661C2964.631,195.869,2964.717,195.15,2964.9,194.497z"/>
		<path style="fill:#FFCC66;" d="M2839.627,218.762l-41.28-20.061l45.069,8.674c3.282,0.632,5.431,3.805,4.799,7.087
			c-0.632,3.282-3.805,5.431-7.087,4.799C2840.606,219.161,2840.086,218.981,2839.627,218.762z"/>
		<path style="fill:#FFCC66;" d="M3015.396,142.19l22.979-39.729l-11.895,44.328c-0.866,3.228-4.185,5.143-7.414,4.277
			c-3.228-0.866-5.143-4.185-4.277-7.414C3014.927,143.138,3015.144,142.632,3015.396,142.19z"/>
		<path style="fill:#FFCC66;" d="M2927.844,340.486l-31.116,57.254l20.09-61.989c1.026-3.166,4.424-4.9,7.59-3.874
			c3.166,1.026,4.9,4.424,3.875,7.59C2928.169,339.814,2928.011,340.174,2927.844,340.486z"/>
		<path style="fill:#FFCC66;" d="M3006.532,358.742l2.872,28.747l-14.304-25.101c-1.677-2.943-0.651-6.689,2.292-8.366
			c2.943-1.677,6.689-0.651,8.366,2.292C3006.192,357.076,3006.447,357.922,3006.532,358.742z"/>
		<path style="fill:#FFCC66;" d="M3037.633,255.91l77.539-3.612l-76.056,15.52c-3.257,0.665-6.435-1.437-7.1-4.693
			c-0.665-3.257,1.437-6.435,4.693-7.1C3037.008,255.964,3037.339,255.926,3037.633,255.91z"/>
		<path style="fill:#FFCC66;" d="M3022.195,204.235l56.972-48.505l-50.736,54.994c-1.688,1.83-4.54,1.945-6.37,0.257
			c-1.83-1.688-1.945-4.54-0.257-6.37C3021.922,204.482,3022.066,204.346,3022.195,204.235z"/>
		<path style="fill:#FFCC66;" d="M2867.618,329.252l-45.98,13.035l42.721-21.424c2.231-1.119,4.948-0.217,6.067,2.014
			c1.119,2.232,0.217,4.948-2.014,6.067C2868.16,329.07,2867.879,329.176,2867.618,329.252z"/>
		<path style="fill:#FFCC66;" d="M2911.862,138.373l-4.344-28.427l12.919,25.692c1.13,2.248,0.224,4.987-2.024,6.117
			c-2.248,1.13-4.987,0.224-6.117-2.024C2912.077,139.298,2911.933,138.827,2911.862,138.373z"/>
		<path style="fill:#FFCC66;" d="M3021.912,311.941l24.939,24.95l-30.441-17.828c-2.162-1.266-2.888-4.046-1.622-6.208
			c1.266-2.162,4.046-2.889,6.208-1.622C3021.332,311.43,3021.648,311.68,3021.912,311.941z"/>
		<path style="fill:#C16256;" d="M1944.809,1107.139c-6.838,0-12.673-3.693-13.876-9.294l0,0
			c-1.438-6.701,4.294-13.636,12.781-15.459c8.487-1.82,16.561,2.149,18,8.852c0.722,3.364-0.289,6.849-2.848,9.811
			c-2.406,2.784-5.933,4.79-9.933,5.648C1947.538,1106.995,1946.154,1107.139,1944.809,1107.139z M1947.922,1086.404
			c-1.06,0-2.158,0.113-3.271,0.353c-6.076,1.305-10.27,5.858-9.348,10.15l0,0c0.921,4.291,6.614,6.726,12.691,5.418
			c3.055-0.655,5.714-2.147,7.488-4.2c1.621-1.876,2.281-3.988,1.86-5.95C1956.59,1088.669,1952.652,1086.404,1947.922,1086.404z"/>
		<path style="fill:#C16256;" d="M1915.113,989.979c-0.697,0-1.384-0.325-1.821-0.936c-0.717-1.004-0.485-2.4,0.52-3.118
			c0.363-0.26,9.085-6.318,25.572-3.166c1.212,0.231,2.007,1.402,1.775,2.615c-0.231,1.212-1.401,2.009-2.615,1.775
			c-14.625-2.796-22.06,2.36-22.133,2.413C1916.017,989.843,1915.563,989.979,1915.113,989.979z"/>
		<path style="fill:#C16256;" d="M1996.023,1004.943c-0.64,0-1.276-0.275-1.718-0.805c-13.021-15.628-26.797-14.194-26.936-14.176
			c-1.221,0.143-2.337-0.73-2.483-1.957c-0.146-1.225,0.73-2.337,1.957-2.483c0.662-0.078,16.338-1.719,30.896,15.754
			c0.79,0.948,0.662,2.358-0.287,3.148C1997.035,1004.773,1996.527,1004.943,1996.023,1004.943z"/>
		<path style="fill:#C16256;" d="M2471.592,818.773c-0.695,0-1.381-0.323-1.817-0.931c-0.72-1.002-0.492-2.396,0.509-3.117
			c0.738-0.532,18.391-13.016,45.438-13.016c1.234,0,2.235,1.001,2.235,2.235c0,1.234-1.001,2.235-2.235,2.235
			c-25.54,0-42.659,12.053-42.829,12.174C2472.498,818.637,2472.043,818.773,2471.592,818.773z"/>
		<path style="fill:#C16256;" d="M2583.44,813.638c-0.401,0-0.807-0.107-1.173-0.333c-19.729-12.188-39.603-7.883-39.802-7.838
			c-1.207,0.273-2.401-0.483-2.673-1.687c-0.272-1.204,0.482-2.401,1.687-2.673c0.882-0.2,21.869-4.742,43.138,8.395
			c1.05,0.649,1.376,2.026,0.727,3.077C2584.921,813.262,2584.189,813.638,2583.44,813.638z"/>
		<path style="fill:#C16256;" d="M2525.842,932.483c-14.545,0-23.125-2.327-23.703-2.489c-1.585-0.443-2.51-2.088-2.066-3.673
			c0.444-1.584,2.09-2.508,3.671-2.067c0.31,0.085,22.513,5.998,56.316-1.809c1.603-0.371,3.205,0.629,3.574,2.233
			c0.371,1.604-0.629,3.204-2.232,3.575C2547.386,931.49,2535.341,932.483,2525.842,932.483z"/>
		<path style="fill:#E57D61;" d="M1427.71,1152.771c-0.983,0-1.841-0.725-1.979-1.727c-2.372-17.115,2.242-34.294,2.439-35.017
			c0.291-1.066,1.389-1.691,2.457-1.402c1.065,0.291,1.694,1.391,1.403,2.456c-0.046,0.17-4.592,17.131-2.335,33.414
			c0.151,1.095-0.613,2.104-1.707,2.256C1427.894,1152.766,1427.801,1152.771,1427.71,1152.771z"/>
		<path style="fill:#7640CC;" d="M3012.047,627.577c-33.62,27.27-85.7,13.46-85.7,13.46c1.28-15.23,1.89-24.64,1.89-24.64
			c55.85,7.66,74.7-10.2,74.7-10.2S3006.577,613.797,3012.047,627.577z"/>
	</g>
	<g id="_x31_">
		<polygon style="fill:#F99370;" points="2963.539,1937.426 3001.34,1865.723 2931.026,1820.708 2920.915,1908.385 		"/>
		<path style="fill:#EB5648;" d="M2929.027,1834.4c0,0,24.202,19.977,72.312,31.316c36.772-56.005,96.778-143.759,123.392-205.064
			c42.253-322.786,86.262-453.824,107.933-451.525c-33.808-3.585-54.788,2.672-82.355,22.758
			C2984.26,1352.878,2959.934,1661.082,2929.027,1834.4z"/>
		<path style="fill:#F99370;" d="M2972.467,1971.987c-0.89,5.47-1.02,17.52-2.83,28.01h-17.73
			c1.411-11.916-1.957-29.043-4.524-42.742c0.297-9.915-6.886-21.769,0.742-30.328
			C2971.295,1909.382,2972.396,1958.655,2972.467,1971.987z"/>
		<path style="fill:#F99370;" d="M2964.817,1933.567c0,0-0.73,1.19-1.97,3.39c-1.64,2.93-4.16,7.65-7.02,13.74
			c-0.94,2-0.73,20.594-1.73,22.884c0,0-11.59,9.996-14.9,26.417h-40.7c-0.93-20.58,4.62-49.89,22.42-91.61c0,0,0.01,0,0.02,0.01
			c0.82,0.15,21.48,4.08,34.97,14.79C2959.597,1926.127,2962.757,1929.557,2964.817,1933.567z"/>
		<path style="fill:#E57D61;" d="M2931.227,1979.247c-2.85,7.52-4.32,14.43-4.87,20.75h-4.31c0.37-4.02,1.03-8.25,2.06-12.67
			c0.719-3.12,1.62-6.34,2.73-9.64c0.43-1.22,1.76-1.85,2.97-1.42C2931.017,1976.697,2931.657,1978.027,2931.227,1979.247z"/>
		<path style="fill:#E57D61;" d="M2917.617,1970.327c-3.93,11.24-5.62,21.16-5.99,29.67h-4.7c0.51-8.89,2.36-19.29,6.29-31.2
			c0.42-1.21,1.75-1.86,2.97-1.43C2917.397,1967.787,2918.037,1969.117,2917.617,1970.327z"/>
		<path style="fill:#163260;" d="M3292.122,831.567c-115.145-34.431-98.843,81.198-157.613,141.327
			c-27.088,35.646-30.124,72.607-20.866,101.856c9.258,29.249-11.382,47.308-20.412,73.108c-9.03,25.8-9.052,48.871,5.16,61.919
			c14.211,13.048,135.927,43.859,153.747,9.03C3269.958,1183.978,3292.122,831.567,3292.122,831.567z"/>
		<path style="fill:#F99370;" d="M3069.078,1814.604h373.597c-18.905-88.771-27.646-182.078-28.508-272.883
			c-11.072-123.562,71.564-307.893-90.578-359.584c-4.941-35.827-1.176-100.605,5.91-132.51
			c15.215-57.283-76.719-79.397-89.214-21.501c-3.513,10.961-12.031,105.632-10.777,150.454
			c0.963,44.635-69.21,49.021-83.143,97.773C3091.928,1449.739,3067.139,1632.96,3069.078,1814.604z"/>
		<path style="fill:#E57D61;" d="M3229.669,1151.008c20.005,4.821,69.727,9.015,101.114-10.563
			c-0.124-4.231-9.319-0.392-9.494-4.466c0.137-36.205,3.604-65.184,8.771-89.107c9.834-54.839-71.042-75.42-88.653-22.595
			C3236.388,1040.236,3231.995,1094.76,3229.669,1151.008z"/>
		<path style="fill:#F99370;" d="M3415.45,1386.392c116.599-5.251,242.546-19.661,338.323-94.253
			c136.544-120.975,86.396-327.084,9.997-467.399c-10.641-22.609-26.947-49.041-55.552-33.654
			c-31.362,19.155-5.294,54.848-0.802,81.374c65.119,279.077-11.401,347.741-287.616,337.126
			C3304.142,1207.267,3299.886,1383.045,3415.45,1386.392z"/>
		<path style="fill:#F99370;" d="M3755.986,815.52c0,0,10.308-39.785-2.202-72.799l-59.51-17.556c0,0-15.482,17.43-15.224,35.365
			s3.583,41.022,21.584,57.882L3755.986,815.52z"/>
		<path style="fill:#F99370;" d="M3715.304,801.645c-36.863-23.743-19.661-66.682-32.087-102.25
			c-2.789-11.379-20.664-7.018-17.844,4.385c2.112,9.245,3.697,18.91,4.534,28.327c0.748,37.12-2.8,67.225,25.993,102.96
			C3706.292,847.591,3728.823,810.924,3715.304,801.645z"/>
		<path style="fill:#CE3932;" d="M3702.686,748.025c-1.424,0-2.781-0.827-3.391-2.214l-85.459-194.667
			c-0.821-1.871,0.029-4.054,1.901-4.875c1.868-0.823,4.054,0.029,4.876,1.901l85.459,194.668c0.821,1.871-0.029,4.054-1.901,4.876
			C3703.688,747.925,3703.183,748.025,3702.686,748.025z"/>
		<path style="fill:#F99370;" d="M3756.703,737.304c-3.054,10.193-8.58,41.699-24.213,34.005c-7.15-4.152-3.902-11.815-1.522-17.803
			c1.858-6.065,3.147-12.712,3.573-19.022C3735.323,718.412,3759.951,721.534,3756.703,737.304z"/>
		<path style="fill:#F99370;" d="M3725.173,716.969c-16.903,21.273-5.56,45.643-21.649,45.423
			c-14.875-2.268-7.712-24.049-6.439-34.147c2.079-8.481,5.241-16.801,9.896-24.243
			C3715.219,692.087,3733.761,705.285,3725.173,716.969z"/>
		<path style="fill:#F99370;" d="M3743.067,727.088c-4.984,8.539-8.631,17.916-11.477,27.398c-2.028,7.33-3.178,19.319-13.728,17.03
			c-15.097-3.706-1.311-33.793,1.011-44.031c0.93-2.679,2.149-5.657,3.284-8.295
			C3727.404,700.691,3752.973,710.656,3743.067,727.088z"/>
		<path style="fill:#F99370;" d="M3712.515,698.134c-3.05,12.129-6.64,23.699-11.209,35.356c-3.966,10.68-20.756,5.042-17.558-5.813
			c2.989-10.902,5.25-22.451,6.809-33.657C3692.74,678.756,3716.009,683.099,3712.515,698.134z"/>
		<polygon style="fill:#FFCC66;" points="3602.277,464.396 3622.01,536.526 3650.474,515.069 3631.731,545.603 3683.927,549.656 
			3630.696,558.863 3650.312,577.106 3622.117,560.8 3599.089,613.027 3606.986,562.36 3572.72,567.924 3602.165,549.964 
			3552.099,514.113 3608.852,538.467 		"/>
		<path style="fill:#E57D61;" d="M3692.863,741.467c-18.955-0.889-7.934-32.945-5.375-20.387
			c-2.056,3.022-3.508,19.471,7.753,15.702c7.26-4.248,11.797-24.479,14.582-36.159c1.363-3.318,5.152-0.779,3.586,2.216
			C3709.127,718.035,3706.376,739.556,3692.863,741.467z"/>
		<path style="fill:#E57D61;" d="M3704.619,762.792c-12.588,0.03-13.522-19.47-9.429-25.088c1.601-2.039,4.773,0.499,3.121,2.505
			c-1.567,1.953-2.247,11.583,1.458,16.244c4.296,6.044,10.403-1.694,13.13,1.752
			C3714.024,762.158,3706.329,762.608,3704.619,762.792z"/>
		<path style="fill:#E57D61;" d="M3719.682,773.752c-0.763,0-1.537-0.098-2.317-0.299c-4.937-1.275-10.083-6.615-6.562-24.813
			c3.98-20.579,13.202-36.595,13.593-37.267c0.555-0.954,1.779-1.279,2.734-0.724c0.955,0.555,1.28,1.779,0.725,2.735
			c-0.092,0.159-9.277,16.129-13.123,36.016c-2.254,11.646-0.929,19,3.633,20.179c4.516,1.164,8.081-3.875,9.605-9.39
			c0.222-0.803,0.464-1.715,0.73-2.715c2.304-8.673,6.161-23.189,13.791-33.213c0.669-0.878,1.923-1.05,2.804-0.38
			c0.879,0.669,1.05,1.925,0.38,2.804c-7.15,9.394-10.88,23.431-13.107,31.817c-0.27,1.014-0.516,1.939-0.74,2.753
			C3729.679,769.028,3724.968,773.752,3719.682,773.752z"/>
		<path style="fill:#E57D61;" d="M3736.506,775.348c-0.975,0-1.933-0.169-2.872-0.508c-4.801-1.732-7.089-7.387-7.185-7.626
			c-0.407-1.027,0.096-2.19,1.123-2.597c1.029-0.408,2.19,0.096,2.598,1.123c0.015,0.037,1.736,4.233,4.835,5.341
			c1.375,0.492,2.85,0.289,4.504-0.616c6.036-3.304,10.548-15.994,11.777-20.604c0.285-1.067,1.381-1.702,2.448-1.419
			c1.067,0.284,1.703,1.38,1.419,2.447c-0.198,0.744-4.948,18.282-13.723,23.085C3739.758,774.889,3738.11,775.348,3736.506,775.348
			z"/>
		<path style="fill:#E57D61;" d="M3723.136,796.205c-0.811,0-1.573-0.497-1.874-1.3c-5.761-15.396-17.827-28.152-17.948-28.28
			c-0.763-0.799-0.733-2.065,0.066-2.828c0.798-0.764,2.065-0.733,2.827,0.065c0.519,0.541,12.747,13.457,18.803,29.641
			c0.387,1.035-0.138,2.188-1.173,2.575C3723.605,796.164,3723.369,796.205,3723.136,796.205z"/>
		<path style="fill:#F99370;" d="M3176.37,1103.968c31.268,31.939,79.57,40.915,118.23,32.653c2.191-0.474,4.421-0.939,6.525-1.524
			c83.476-21.648,107.623-151.52,73.278-219.103c-20.647-46.062-79.287-74.1-125.855-50.999
			c-32.56,17.286-44.9,50.473-59.448,85.389c-4.364,9.09-12.765,20.943-20.993,29.016
			C3136.523,1011.224,3136.47,1061.153,3176.37,1103.968z"/>
		<path style="fill:#F99370;" d="M3413.2,1027.603c-9.583,44.271-63.638,32.842-54.483-11.518
			C3368.3,971.815,3422.355,983.244,3413.2,1027.603z"/>
		<path style="fill:#C16256;" d="M3399.149,1036.752c0.956,0,1.84-0.619,2.134-1.581c10.086-28.204-5.224-39.971-23.778-32.37
			c-2.699,1.022-1.057,5.24,1.627,4.156c15.913-6.536,26.307,3.368,17.88,26.912
			C3396.559,1035.271,3397.681,1036.774,3399.149,1036.752z"/>
		<path style="fill:#C16256;" d="M3378.319,1033.632c4.046-0.534,6.281-16.872,23.499-18.626c1.23-0.081,2.16-1.144,2.079-2.374
			c-0.082-1.23-1.132-2.169-2.374-2.079C3384.383,1011.96,3371.563,1032.653,3378.319,1033.632z"/>
		<path style="fill:#C16256;" d="M3239.799,983.898c-3.565-6.77,7.149-12.213,10.514-5.341
			C3253.877,985.326,3243.163,990.77,3239.799,983.898z"/>
		<path style="fill:#E57D61;" d="M3279.891,946.078c51.533,21.849,6.74,78.971,19.121,120.663l31.77-112.453
			c-18.075-22.814-53.275-70.326-69.13-94.482c-10.051,2.844-18.959,7.793-27.09,14.548
			C3234.563,874.354,3228.358,924.229,3279.891,946.078z"/>
		<path style="fill:#C16256;" d="M3190.226,975.564c-3.565-6.77,7.149-12.213,10.514-5.341
			C3204.304,976.993,3193.59,982.436,3190.226,975.564z"/>
		<path style="fill:#C16256;" d="M3208.973,1026.847c2.794-0.281,8.625,0.251,7.99-3.741c-0.378-1.177-1.634-1.82-2.806-1.444
			c-7.517,2.663-25.723-2.548-16.989-7.891c12.65-6.85,21.14-30.791,21.495-31.807c0.989-2.702-3.291-4.232-4.213-1.473
			c-0.081,0.232-8.274,23.327-19.407,29.357C3181.386,1019.448,3198.182,1026.706,3208.973,1026.847z"/>
		<path style="fill:#EB5648;" d="M3039.497,1691.177c10.291-75.622-56.937-148.988-10.561-216.23
			c25.698-37.59,45.819-60.258,71.701-117.34c39.738-83.433,51.963-118.208,120.58-154.58c0,0,0,0.01-0.01,0.02
			c-0.073,0.394-0.334,1.412-0.48,2.07c0,0,0.01,0.01,0,0.01c-0.229,1.016-0.423,1.877-0.69,3.1
			c-7.895,35.045-39.275,186.41,34.192,118.261c35.663-41.296,47.154-102.528,92.488-135.471l59.828,18.076
			c0,0,96.315,154.872,95.306,211.203c-0.118,6.58-31.708,128.237-6.087,237.96c25.613,109.691,60.083,207.46,60.083,341.74h-550.3
			C3016.789,1897.806,3028.941,1792.183,3039.497,1691.177z"/>
		<path style="fill:#EB5648;" d="M3342.48,1775.801c0,0,18.208,73.795,103.785,128.392l-46.81,42.762
			c0,0-71.541-50.982-108.867-132.917L3342.48,1775.801z"/>
		<path style="fill:#CE3932;" d="M3463.543,1919.542c6.879,0.25,9.283-10.005,2.819-12.753
			c-0.924-0.428-92.66-43.99-117.443-132.786c-0.994-3.554-4.678-5.637-8.238-4.642c-3.556,0.993-5.635,4.682-4.642,8.238
			C3364.997,1874.217,3455.286,1917.619,3463.543,1919.542z"/>
		<path style="fill:#CE3932;" d="M3031.01,1667.611c0,0,4.498-3.411,7.088-38.498c2.473-33.492-42.604-108.346,5.191-163.652
			c26.314-30.448,57.355-107.881,57.355-107.881s-28.677,58.72-66.003,101.509c-37.326,42.788-27.312,88.308-13.656,138.38
			C3039.607,1642.608,3031.01,1667.611,3031.01,1667.611z"/>
		<path style="fill:#F4D4BE;" d="M3166.876,1385.569c29.364-17.757,49.154-12.97,75.602,8.879
			c26.449,21.849,71.885,36.183,76.672-11.606c3.135-49.723,43.672-52.763,74.987-79.213c46.319-34.818,12.409-94.535,12.409-94.535
			c-35.678-14.413-59.864-18.075-59.824-18.078c-52.202,33.402-74.425,155.268-125.424,152.461
			c-33.001-1.818-0.08-140.453-0.08-140.453c-35.087-2.3-70.908,28.863-70.908,28.863c8.686,24.151,38.269,34.214,10.415,69.017
			C3130.694,1338.448,3137.513,1403.327,3166.876,1385.569z"/>
		<path style="fill:#EB5648;" d="M3839.333,1165.537c-4.261,37.283-16.839,71.078-35.197,101.447l-0.06,0.089
			c-7.57,12.517-16.123,24.468-25.451,35.822c0,0-0.03,0.03-0.09,0.06c-74.982,91.195-201.314,145.286-285.267,165.701
			c-11.265,2.772-21.756,4.888-31.263,6.437c0,0-64.521-145.345-55.461-265.985c0,0,58.8-11.086,84.162-10.073
			c25.362,1.013,139.385-1.013,201.582-64.939c48.637-50.008,28.819-188.41,17.881-246.316c-3.04-16.123-5.394-26.018-5.394-26.018
			s39.428,3.994,67.383-21.13c0,0,5.543,8.196,13.5,23.484v0.03C3809.679,910.28,3855.813,1020.817,3839.333,1165.537z"/>
		<path style="fill:#163260;" d="M3248.559,865.001c58.174-78.069,215.935-58.736,242.741,49.378
			c3.868,21.923,29.971,34.478,39.467,58.515c9.496,24.038,4.748,47.766-2.526,72.667c-7.274,24.9,10.786,46.829,15.946,66.179
			c5.16,19.35,7.74,49.961,0,66.905c-7.74,16.944,8.48,31.134,4.885,58.223c-3.595,27.09-215.437,33.54-256.95-5.16
			s18.743-75.504,22.155-100.961c3.412-25.457-19.808-43.541-14.648-77.713c5.16-34.172,16.397-48.707,14.648-80.139
			C3312.528,941.462,3233.608,929.148,3248.559,865.001z"/>
		<path style="fill:#CE3932;" d="M3021.477,1835.39c0,0,30.735-144.871,16.629-211.511c-14.105-66.64-5.116,0-5.116,0
			s5.791,23.563-1.98,43.732L3021.477,1835.39z"/>
		<path style="fill:#CE3932;" d="M3778.534,1302.955c-74.983,91.195-201.314,145.286-285.268,165.701c0,0-5.632-37.462-6.646-64.254
			c0,0,29.445,25.242,107.557,10.371C3671.067,1400.14,3775.316,1305.905,3778.534,1302.955z"/>
		<path style="fill:#FFCC66;" d="M3559.681,490.735l-21.298-43.3l33.566,34.668c2.917,3.012,2.839,7.819-0.174,10.736
			c-3.012,2.917-7.819,2.839-10.736-0.173C3560.482,492.09,3560.02,491.417,3559.681,490.735z"/>
		<path style="fill:#FFCC66;" d="M3644.895,478.206l19.653-27.303l-8.82,32.464c-0.883,3.25-4.233,5.169-7.483,4.286
			c-3.25-0.883-5.169-4.233-4.286-7.483C3644.155,479.451,3644.486,478.779,3644.895,478.206z"/>
		<path style="fill:#FFCC66;" d="M3537.381,551.715l-34.496-4.727l34.052-7.265c3.29-0.702,6.526,1.396,7.228,4.686
			c0.702,3.29-1.396,6.526-4.686,7.228C3538.778,551.787,3538.054,551.804,3537.381,551.715z"/>
		<path style="fill:#FFCC66;" d="M3591.783,434.507l2.094-45.848l9.862,44.824c0.718,3.264-1.346,6.493-4.61,7.211
			c-3.264,0.718-6.493-1.346-7.211-4.61C3591.803,435.564,3591.762,435.015,3591.783,434.507z"/>
		<path style="fill:#FFCC66;" d="M3702.824,529.805l64.967-5.053l-62.939,16.88c-3.214,0.862-6.519-1.045-7.381-4.259
			c-0.862-3.214,1.045-6.519,4.259-7.381C3702.084,529.898,3702.472,529.835,3702.824,529.805z"/>
		<path style="fill:#FFCC66;" d="M3674.848,598.019l21.065,19.772l-27.281-9.508c-3.199-1.115-4.888-4.612-3.773-7.811
			c1.115-3.199,4.612-4.888,7.811-3.773C3673.497,596.988,3674.245,597.458,3674.848,598.019z"/>
		<path style="fill:#FFCC66;" d="M3600.278,639.391l-16.862,27.792l5.63-32.016c0.584-3.321,3.749-5.539,7.07-4.955
			c3.321,0.584,5.539,3.749,4.955,7.07C3600.938,638.044,3600.655,638.766,3600.278,639.391z"/>
		<path style="fill:#FFCC66;" d="M3558.344,601.417l-65.325,36.485l60.472-44.064c2.012-1.466,4.832-1.024,6.298,0.988
			c1.466,2.012,1.024,4.832-0.989,6.299C3558.66,601.227,3558.492,601.333,3558.344,601.417z"/>
		<path style="fill:#FFCC66;" d="M3693.783,476.941l38.411-28.438l-32.398,35.135c-1.692,1.835-4.552,1.951-6.387,0.259
			s-1.951-4.552-0.259-6.387C3693.34,477.303,3693.566,477.104,3693.783,476.941z"/>
		<path style="fill:#FFCC66;" d="M3664.969,398.82l13.853-26.771l-5.332,29.667c-0.445,2.474-2.81,4.119-5.284,3.674
			s-4.119-2.81-3.674-5.284C3664.614,399.654,3664.77,399.21,3664.969,398.82z"/>
		<path style="fill:#FFCC66;" d="M3504.037,492.637l-21.964-18.563l26.626,10.865c2.33,0.951,3.448,3.61,2.497,5.94
			c-0.951,2.33-3.61,3.448-5.94,2.497C3504.808,493.193,3504.39,492.932,3504.037,492.637z"/>
		<path style="fill:#FFCC66;" d="M3732.936,592.232l27.597,21.975l-32.259-14.277c-2.292-1.014-3.327-3.694-2.313-5.985
			c1.014-2.291,3.694-3.327,5.985-2.313C3732.302,591.789,3732.644,592.002,3732.936,592.232z"/>
		<path style="fill:#F9F8F3;" d="M3193.689,1043.922l33.027-4.47C3223.301,1057.347,3201.765,1061.983,3193.689,1043.922z"/>
		<path style="fill:#C16256;" d="M3193.26,1045.145c-1.244-0.388-1.08-2.374,0.255-2.509c0.642,0.584,35.641-6.4,34.486-3.36
			c0.095,0.71-0.401,1.364-1.111,1.459C3226.156,1040.692,3193.974,1045.465,3193.26,1045.145z"/>
		<path style="fill:#C16256;" d="M3266.232,965.509c-0.63,0-1.256-0.265-1.697-0.78c-10.466-12.204-23.655-11.086-24.207-11.031
			c-1.228,0.115-2.321-0.777-2.442-2.004c-0.122-1.225,0.768-2.318,1.992-2.444c0.654-0.063,16.013-1.468,28.05,12.569
			c0.804,0.937,0.696,2.348-0.241,3.152C3267.265,965.332,3266.747,965.509,3266.232,965.509z"/>
		<path style="fill:#C16256;" d="M3195.488,951.422c-0.713,0-1.414-0.339-1.847-0.97c-0.696-1.016-0.442-2.401,0.571-3.101
			c0.479-0.332,11.9-8.027,25.597-1.174c1.104,0.552,1.552,1.895,0.999,2.999c-0.552,1.104-1.894,1.551-2.999,0.999
			c-11.279-5.643-20.669,0.591-21.063,0.859C3196.36,951.296,3195.922,951.422,3195.488,951.422z"/>
	</g>
</g>
</svg>
