<?xml version="1.0" encoding="UTF-8"?>
<svg xmlns="http://www.w3.org/2000/svg" xmlns:xlink="http://www.w3.org/1999/xlink" width="24px" height="24px" viewBox="0 0 24 24" version="1.1">
<g id="surface1">
<path style=" stroke:none;fill-rule:nonzero;fill:rgb(50.980392%,52.54902%,54.901961%);fill-opacity:1;" d="M 17.363281 10.761719 L 16.238281 10.761719 L 16.238281 8.363281 C 16.238281 6.039062 14.324219 4.125 12 4.125 C 9.675781 4.125 7.761719 6.039062 7.761719 8.363281 L 7.761719 10.761719 L 6.636719 10.761719 L 6.636719 8.363281 C 6.636719 5.398438 9.039062 3 12 3 C 14.960938 3 17.363281 5.398438 17.363281 8.363281 Z M 17.363281 10.761719 "/>
<path style=" stroke:none;fill-rule:nonzero;fill:rgb(50.980392%,52.54902%,54.901961%);fill-opacity:1;" d="M 16.800781 20.960938 L 7.199219 20.960938 C 6.226562 20.960938 5.398438 20.136719 5.398438 19.164062 L 5.398438 11.960938 C 5.398438 10.988281 6.226562 10.164062 7.199219 10.164062 L 16.800781 10.164062 C 17.773438 10.164062 18.601562 10.988281 18.601562 11.960938 L 18.601562 19.164062 C 18.601562 20.175781 17.773438 20.960938 16.800781 20.960938 Z M 7.199219 11.363281 C 6.863281 11.363281 6.601562 11.625 6.601562 11.960938 L 6.601562 19.164062 C 6.601562 19.5 6.863281 19.761719 7.199219 19.761719 L 16.800781 19.761719 C 17.136719 19.761719 17.398438 19.5 17.398438 19.164062 L 17.398438 11.960938 C 17.398438 11.625 17.136719 11.363281 16.800781 11.363281 Z M 7.199219 11.363281 "/>
<path style=" stroke:none;fill-rule:nonzero;fill:rgb(50.980392%,52.54902%,54.901961%);fill-opacity:1;" d="M 13.199219 13.761719 C 13.199219 14.4375 12.675781 14.960938 12 14.960938 C 11.324219 14.960938 10.800781 14.4375 10.800781 13.761719 C 10.800781 13.085938 11.324219 12.5625 12 12.5625 C 12.675781 12.5625 13.199219 13.125 13.199219 13.761719 Z M 13.199219 13.761719 "/>
<path style=" stroke:none;fill-rule:nonzero;fill:rgb(50.980392%,52.54902%,54.901961%);fill-opacity:1;" d="M 12.300781 13.761719 L 11.699219 13.761719 L 11.101562 17.363281 L 12.898438 17.363281 Z M 12.300781 13.761719 "/>
</g>
</svg>
