<?xml version="1.0" encoding="UTF-8"?>
<svg xmlns="http://www.w3.org/2000/svg" xmlns:xlink="http://www.w3.org/1999/xlink" width="24px" height="24px" viewBox="0 0 24 24" version="1.1">
<g id="surface1">
<path style=" stroke:none;fill-rule:nonzero;fill:rgb(50.980392%,52.54902%,54.901961%);fill-opacity:1;" d="M 20.429688 19.492188 L 16.710938 15.769531 C 17.917969 14.320312 18.519531 12.460938 18.390625 10.582031 C 18.261719 8.699219 17.414062 6.9375 16.019531 5.667969 C 14.628906 4.394531 12.796875 3.710938 10.910156 3.75 C 9.027344 3.792969 7.230469 4.5625 5.894531 5.898438 C 4.5625 7.230469 3.792969 9.027344 3.75 10.914062 C 3.710938 12.796875 4.394531 14.628906 5.667969 16.019531 C 6.9375 17.414062 8.699219 18.261719 10.578125 18.390625 C 12.460938 18.519531 14.320312 17.917969 15.769531 16.710938 L 19.488281 20.429688 C 19.613281 20.554688 19.78125 20.625 19.957031 20.625 C 20.136719 20.625 20.304688 20.554688 20.429688 20.429688 C 20.492188 20.367188 20.539062 20.296875 20.574219 20.214844 C 20.609375 20.132812 20.625 20.046875 20.625 19.960938 C 20.625 19.871094 20.609375 19.785156 20.574219 19.707031 C 20.539062 19.625 20.492188 19.550781 20.429688 19.492188 Z M 5.105469 11.09375 C 5.105469 10.109375 5.34375 9.136719 5.804688 8.265625 C 6.265625 7.398438 6.9375 6.65625 7.753906 6.105469 C 8.570312 5.554688 9.511719 5.21875 10.492188 5.117188 C 11.472656 5.019531 12.460938 5.164062 13.371094 5.539062 C 14.28125 5.914062 15.085938 6.507812 15.714844 7.269531 C 16.339844 8.03125 16.765625 8.933594 16.960938 9.898438 C 17.152344 10.867188 17.105469 11.863281 16.820312 12.808594 C 16.535156 13.75 16.023438 14.609375 15.324219 15.304688 C 14.492188 16.144531 13.425781 16.714844 12.265625 16.949219 C 11.105469 17.183594 9.902344 17.066406 8.808594 16.613281 C 7.714844 16.164062 6.777344 15.398438 6.121094 14.414062 C 5.460938 13.433594 5.109375 12.277344 5.105469 11.09375 Z M 5.105469 11.09375 "/>
</g>
</svg>
