<?xml version="1.0" encoding="UTF-8"?>
<svg xmlns="http://www.w3.org/2000/svg" xmlns:xlink="http://www.w3.org/1999/xlink" width="24px" height="24px" viewBox="0 0 24 24" version="1.1">
<g id="surface1">
<path style="fill:none;stroke-width:1.5;stroke-linecap:round;stroke-linejoin:round;stroke:rgb(50.980392%,52.54902%,54.901961%);stroke-opacity:1;stroke-miterlimit:4;" d="M 15.234375 14.775391 C 18.149414 14.775391 20.512695 12.412109 20.512695 9.49707 C 20.512695 6.582031 18.149414 4.21875 15.234375 4.21875 C 12.319336 4.21875 9.956055 6.582031 9.956055 9.49707 C 9.956055 12.412109 12.319336 14.775391 15.234375 14.775391 Z M 15.234375 14.775391 " transform="matrix(0.8,0,0,0.8,0,0)"/>
<path style="fill:none;stroke-width:1.5;stroke-linecap:round;stroke-linejoin:round;stroke:rgb(50.980392%,52.54902%,54.901961%);stroke-opacity:1;stroke-miterlimit:4;" d="M 15.234375 16.694336 C 12.446289 16.772461 9.716797 17.495117 7.255859 18.808594 C 6.625977 19.130859 6.09375 19.619141 5.722656 20.224609 C 5.351562 20.830078 5.15625 21.523438 5.15625 22.236328 L 5.15625 22.93457 C 5.15625 23.31543 5.307617 23.681641 5.576172 23.955078 C 5.849609 24.223633 6.21582 24.375 6.59668 24.375 L 23.87207 24.375 C 24.25293 24.375 24.619141 24.223633 24.892578 23.955078 C 25.161133 23.681641 25.3125 23.31543 25.3125 22.93457 L 25.3125 22.236328 C 25.3125 21.523438 25.117188 20.830078 24.746094 20.224609 C 24.375 19.619141 23.842773 19.130859 23.212891 18.808594 C 20.751953 17.495117 18.022461 16.772461 15.234375 16.694336 Z M 15.234375 16.694336 " transform="matrix(0.8,0,0,0.8,0,0)"/>
</g>
</svg>
